<svg id="Layer_1" data-name="Layer 1" xmlns="http://www.w3.org/2000/svg" viewBox="0 0 128 128"><title>AGRICULTURE</title><path d="M49.125,54.333h29.75a0,0,0,0,1,0,0v47.792A14.875,14.875,0,0,1,64,117h0a14.875,14.875,0,0,1-14.875-14.875V54.333a0,0,0,0,1,0,0Z" style="fill:#f7ecda"/><path d="M64,117a14.875,14.875,0,0,0,14.875-14.875V54.333H64Z" style="fill:#ecd6b2"/><path d="M78.875,79.248a21.618,21.618,0,0,0-15.042-1.915c-5.534,1.222-10.662-1.091-14.708-4.115v28.907a14.875,14.875,0,0,0,29.75,0Z" style="fill:#606de0"/><path d="M64,77.3V117a14.875,14.875,0,0,0,14.875-14.875V79.248A21.6,21.6,0,0,0,64,77.3Z" style="fill:#3647d7"/><path d="M58.087,15.95A10.5,10.5,0,1,1,43.238,30.8c-4.1-4.1-4.95-19.8-4.95-19.8S53.987,11.849,58.087,15.95Z" style="fill:#1db6bc"/><path d="M74.7,14.753a7.962,7.962,0,0,0,11.26,11.26C89.068,22.9,89.712,11,89.712,11S77.807,11.644,74.7,14.753Z" style="fill:#17799b"/><rect x="44" y="45.834" width="40" height="8.499" style="fill:#fed33c"/><path d="M57.856,34.179A15.439,15.439,0,0,1,62.25,45v.836h3.5V41.642a11.257,11.257,0,0,1,3.171-7.869L82.253,20.934a1.75,1.75,0,1,0-2.428-2.521L66.452,31.292a14.825,14.825,0,0,0-3.035,4.585,18.742,18.742,0,0,0-3-4.083L51.031,21.272A1.75,1.75,0,1,0,48.42,23.6Z" style="fill:#9f5f4d"/><path d="M62.25,54.333V98.569a1.75,1.75,0,1,0,3.5,0V54.333Z" style="fill:#714437"/><rect x="64" y="45.834" width="20" height="8.499" style="fill:#fd9e35"/></svg>