<svg id="Layer_1" data-name="Layer 1" xmlns="http://www.w3.org/2000/svg" viewBox="0 0 128 128"><title>ART</title><path d="M17.95,73.23a47.34,47.34,0,0,0,43.6,43.6C115.68,120.9,121.566,50.927,79.492,47c-11.583-1.08-12.106-12.131-11.458-15.238a7.149,7.149,0,0,0-.884-5.046h0a7.393,7.393,0,0,0-7.134-3.63A47.062,47.062,0,0,0,17.95,73.23Z" style="fill:#ecd6b2"/><path d="M64,23.806a7.358,7.358,0,0,0-3.983-.716,47.055,47.055,0,0,0,1.532,93.739q1.243.094,2.451.135Z" style="fill:#f7ecda"/><circle cx="84.558" cy="77.389" r="12.628" style="fill:#fd9e35"/><circle cx="58.977" cy="97.966" r="9.27" style="fill:#b20944"/><circle cx="35.786" cy="56.657" r="6.818" style="fill:#1db6bc"/><circle cx="50.729" cy="40.424" r="5.411" style="fill:#606de0"/><path d="M46.232,74.934h0a6.571,6.571,0,0,1,.209-9.493l58.573-53.634a3.075,3.075,0,0,1,4.251.094h0a3.075,3.075,0,0,1,.094,4.251L55.725,74.725A6.571,6.571,0,0,1,46.232,74.934Z" style="fill:#9f5f4d"/><path d="M46.715,89.149a9.707,9.707,0,0,0,0-13.732C35.038,63.74,21.71,82.155,27.9,94.236c0,0,2.5-3.888,8.321-2.946C38.253,91.62,42.893,92.971,46.715,89.149Z" style="fill:#fed33c"/><polygon points="49.033 63.067 58.099 72.132 64.178 65.494 55.672 56.988 49.033 63.067" style="fill:#1db6bc"/><path d="M64,90.182a9.27,9.27,0,1,0,0,15.567Z" style="fill:#fc445e"/><path d="M55.725,74.725l53.634-58.573a3.075,3.075,0,0,0-.094-4.251L46.232,74.934A6.528,6.528,0,0,0,55.725,74.725Z" style="fill:#714437"/><polygon points="58.099 72.132 64.178 65.494 59.925 61.241 53.566 67.599 58.099 72.132" style="fill:#17799b"/><path d="M46.207,74.952c-.51.37-13.148,9.6-18.311,19.285,0,0,2.5-3.888,8.321-2.946,2.036.33,6.676,1.681,10.5-2.141a9.707,9.707,0,0,0,0-13.732C46.546,75.249,46.376,75.108,46.207,74.952Z" style="fill:#fd9e35"/></svg>