<svg id="Layer_1" data-name="Layer 1" xmlns="http://www.w3.org/2000/svg" viewBox="0 0 128 128"><title>BACKPACK</title><path d="M64,9.25A11.375,11.375,0,1,0,75.375,20.625,11.388,11.388,0,0,0,64,9.25ZM64,28.5a7.875,7.875,0,1,1,7.875-7.875A7.884,7.884,0,0,1,64,28.5Z" style="fill:#9f5f4d"/><path d="M71.875,20.625A7.884,7.884,0,0,1,64,28.5V32A11.375,11.375,0,0,0,64,9.25v3.5A7.884,7.884,0,0,1,71.875,20.625Z" style="fill:#714437"/><path d="M102.92,59.58v54.1A3.325,3.325,0,0,1,99.6,117H28.4a3.325,3.325,0,0,1-3.32-3.32V59.58a38.92,38.92,0,0,1,77.84,0Z" style="fill:#fc445e"/><path d="M60.687,71.743h6.625A25.875,25.875,0,0,1,93.187,97.618v4.3a0,0,0,0,1,0,0H34.813a0,0,0,0,1,0,0v-4.3A25.875,25.875,0,0,1,60.687,71.743Z" style="fill:#fed33c"/><path d="M25.085,80.759h0a0,0,0,0,1,0,0v31a0,0,0,0,1,0,0H11a0,0,0,0,1,0,0V94.844A14.085,14.085,0,0,1,25.085,80.759Z" style="fill:#1db6bc"/><path d="M102.915,80.759H117a0,0,0,0,1,0,0v31a0,0,0,0,1,0,0h0a14.085,14.085,0,0,1-14.085-14.085V80.759A0,0,0,0,1,102.915,80.759Z" transform="translate(219.915 192.518) rotate(-180)" style="fill:#17799b"/><rect x="56.062" y="40.419" width="15.875" height="15.875" transform="translate(-15.448 59.418) rotate(-45)" style="fill:#f7ecda"/><path d="M99.6,117a3.325,3.325,0,0,0,3.32-3.32V59.58A38.922,38.922,0,0,0,64,20.66V117Z" style="fill:#b20944"/><polygon points="75.225 48.356 64 37.131 64 59.581 75.225 48.356" style="fill:#ecd6b2"/><path d="M67.313,71.743H64v30.174H93.188v-4.3A25.875,25.875,0,0,0,67.313,71.743Z" style="fill:#fd9e35"/><path d="M30.83,111.76a1.746,1.746,0,0,1-1.75,1.75h-4v-3.5h4A1.746,1.746,0,0,1,30.83,111.76Z" style="fill:#b20944"/><path d="M91.16,110.01H83.4a1.75,1.75,0,1,0,0,3.5h7.76a1.75,1.75,0,0,0,0-3.5Zm-15.52,0H67.88a1.75,1.75,0,0,0,0,3.5h7.76a1.75,1.75,0,0,0,0-3.5Zm-15.52,0H52.36a1.75,1.75,0,0,0,0,3.5h7.76a1.75,1.75,0,0,0,0-3.5Zm-15.52,0H36.84a1.75,1.75,0,1,0,0,3.5H44.6a1.75,1.75,0,1,0,0-3.5Z" style="fill:#b20944"/><path d="M102.92,110.01v3.5h-4a1.75,1.75,0,0,1,0-3.5Z" style="fill:#fc445e"/><path d="M91.16,110.01H83.4a1.75,1.75,0,1,0,0,3.5h7.76a1.75,1.75,0,0,0,0-3.5Zm-15.52,0H67.88a1.75,1.75,0,0,0,0,3.5h7.76a1.75,1.75,0,0,0,0-3.5Z" style="fill:#fc445e"/></svg>