<svg id="Layer_1" data-name="Layer 1" xmlns="http://www.w3.org/2000/svg" viewBox="0 0 128 128"><title>BIOLOGY</title><path d="M85.292,57.313H42.708a1.75,1.75,0,0,0,0,3.5H85.292a1.75,1.75,0,0,0,0-3.5Z" style="fill:#17799b"/><path d="M87.042,68.937a1.75,1.75,0,0,0-1.75-1.75H42.708a1.75,1.75,0,0,0,0,3.5H85.292A1.75,1.75,0,0,0,87.042,68.937Z" style="fill:#17799b"/><path d="M43.653,107.128a1.75,1.75,0,0,0,1.75,1.75H82.6a1.75,1.75,0,0,0,0-3.5H45.4A1.75,1.75,0,0,0,43.653,107.128Z" style="fill:#17799b"/><path d="M88.93,113.25H39.06a1.75,1.75,0,0,0,0,3.5H88.93a1.75,1.75,0,0,0,0-3.5Z" style="fill:#17799b"/><path d="M84.337,20.872a1.75,1.75,0,0,0-1.75-1.75H45.393a1.75,1.75,0,0,0,0,3.5H82.587A1.75,1.75,0,0,0,84.337,20.872Z" style="fill:#17799b"/><path d="M39.06,14.75H88.93a1.75,1.75,0,0,0,0-3.5H39.06a1.75,1.75,0,0,0,0,3.5Z" style="fill:#17799b"/><path d="M49.968,46.98a1.75,1.75,0,0,0,0,3.5H78.033a1.75,1.75,0,0,0,0-3.5Z" style="fill:#17799b"/><path d="M78.033,81.02a1.75,1.75,0,0,0,0-3.5H49.968a1.75,1.75,0,0,0,0,3.5Z" style="fill:#17799b"/><path d="M42.708,57.313a1.75,1.75,0,0,0,0,3.5H64v-3.5Z" style="fill:#1db6bc"/><path d="M42.708,67.187a1.75,1.75,0,0,0,0,3.5H64v-3.5Z" style="fill:#1db6bc"/><path d="M45.4,105.378a1.75,1.75,0,0,0,0,3.5H64v-3.5Z" style="fill:#1db6bc"/><path d="M39.06,113.25a1.75,1.75,0,0,0,0,3.5H64v-3.5Z" style="fill:#1db6bc"/><path d="M49.968,46.98a1.75,1.75,0,0,0,0,3.5H64v-3.5Z" style="fill:#1db6bc"/><path d="M49.968,77.52a1.75,1.75,0,0,0,0,3.5H64v-3.5Z" style="fill:#1db6bc"/><path d="M45.393,19.122a1.75,1.75,0,0,0,0,3.5H64v-3.5Z" style="fill:#1db6bc"/><path d="M39.06,11.25a1.75,1.75,0,0,0,0,3.5H64v-3.5Z" style="fill:#1db6bc"/><path d="M66.338,87.73C49.031,82.556,43.694,73.185,42.049,67.791a12.964,12.964,0,0,1,0-7.582c1.645-5.394,6.982-14.765,24.288-19.939,18.9-5.65,25.708-17.638,28.094-24.339a4,4,0,0,0-3.282-5.309h0A4,4,0,0,0,86.9,13.258c-1.772,4.953-7.159,14.654-22.854,19.347-28.033,8.38-30.514,26.929-30.713,31.082v.625c.2,4.153,2.68,22.7,30.713,31.082,15.7,4.693,21.083,14.394,22.854,19.348a4,4,0,0,0,4.249,2.636h0a4,4,0,0,0,3.282-5.309C92.046,105.369,85.237,93.381,66.338,87.73Z" style="fill:#3647d7"/><path d="M61.662,40.27c17.306,5.174,22.644,14.545,24.288,19.939a12.964,12.964,0,0,1,0,7.582c-1.645,5.394-6.982,14.765-24.288,19.939-18.9,5.65-25.708,17.638-28.094,24.339a4,4,0,0,0,3.282,5.309h0a4,4,0,0,0,4.249-2.637c1.772-4.953,7.159-14.654,22.854-19.347,28.033-8.38,30.514-26.929,30.713-31.082v-.625c-.2-4.153-2.68-22.7-30.713-31.082C48.257,27.913,42.871,18.211,41.1,13.258a4,4,0,0,0-4.249-2.636h0a4,4,0,0,0-3.282,5.309C35.954,22.631,42.763,34.619,61.662,40.27Z" style="fill:#606de0"/></svg>