<svg id="Layer_1" data-name="Layer 1" xmlns="http://www.w3.org/2000/svg" viewBox="0 0 128 128"><title>BOOKS</title><path d="M111.5,72.8V92H29.48a9.6,9.6,0,1,1,0-19.2Z" style="fill:#f7ecda"/><rect x="65.69" y="72.8" width="45.81" height="19.2" style="fill:#ecd6b2"/><path d="M111.5,36V55.2H29.48a9.6,9.6,0,1,1,0-19.2Z" style="fill:#f7ecda"/><rect x="65.69" y="36" width="45.81" height="19.2" style="fill:#ecd6b2"/><path d="M29.481,72.8H117V64H29.4A18.4,18.4,0,0,0,11,82.4h0a18.4,18.4,0,0,0,18.4,18.4H117V92H29.481a9.6,9.6,0,1,1,0-19.193Z" style="fill:#1db6bc"/><path d="M111.5,77.58v3.5H41.22a1.75,1.75,0,1,1,0-3.5Z" style="fill:#9f5f4d"/><path d="M111.5,83.72v3.5H41.22a1.75,1.75,0,0,1,0-3.5Z" style="fill:#9f5f4d"/><polygon points="54.5 100.801 47.86 93.137 41.219 100.801 41.219 85.472 54.5 85.472 54.5 100.801" style="fill:#fed33c"/><path d="M29.481,36H117V27.2H29.4A18.4,18.4,0,0,0,11,45.6h0A18.4,18.4,0,0,0,29.4,64H117V55.2H29.481a9.6,9.6,0,1,1,0-19.193Z" style="fill:#fc445e"/><path d="M111.5,40.78v3.5H41.22a1.75,1.75,0,0,1,0-3.5Z" style="fill:#9f5f4d"/><path d="M111.5,46.92v3.5H41.22a1.75,1.75,0,1,1,0-3.5Z" style="fill:#9f5f4d"/><polygon points="111.5 57.856 104.86 50.192 98.219 57.856 98.219 42.528 111.5 42.528 111.5 57.856" style="fill:#fd9e35"/><rect x="65.69" y="55.196" width="51.31" height="8.804" style="fill:#b20944"/><rect x="65.69" y="27.199" width="51.31" height="8.804" style="fill:#b20944"/><rect x="65.69" y="91.997" width="51.31" height="8.804" style="fill:#17799b"/><rect x="65.69" y="64" width="51.31" height="8.804" style="fill:#17799b"/></svg>