<svg id="Layer_1" data-name="Layer 1" xmlns="http://www.w3.org/2000/svg" viewBox="0 0 128 128"><title>BOOKSHELF</title><rect x="79.781" y="26.135" width="16" height="56.667" transform="matrix(0.91, -0.415, 0.415, 0.91, -14.694, 41.382)" style="fill:#606de0"/><polygon points="76.32 28.555 100.107 79.988 106.827 76.919 83.29 25.372 76.32 28.555" style="fill:#3647d7"/><rect x="52.34" y="26.899" width="16" height="56.667" style="fill:#1db6bc"/><rect x="60.34" y="26.899" width="8" height="56.667" style="fill:#17799b"/><rect x="37.173" y="35.065" width="15.167" height="48.5" style="fill:#fed33c"/><rect x="44.756" y="35.065" width="7.583" height="48.5" style="fill:#fd9e35"/><rect x="11" y="83.565" width="106" height="9.927" style="fill:#9f5f4d"/><rect x="18.757" y="93.492" width="9.136" height="9.136" style="fill:#714437"/><rect x="100.107" y="93.492" width="9.136" height="9.136" style="fill:#714437"/><rect x="21.173" y="26.899" width="16" height="56.667" style="fill:#fc445e"/><rect x="74.139" y="33.529" width="16" height="17.167" transform="translate(-10.071 37.922) rotate(-24.542)" style="fill:#f7ecda"/><rect x="37.173" y="40.274" width="15.167" height="5.559" style="fill:#f7ecda"/><rect x="52.34" y="33.286" width="16" height="5.559" style="fill:#f7ecda"/><rect x="52.34" y="71.899" width="16" height="5.559" style="fill:#f7ecda"/><rect x="64" y="83.565" width="53" height="9.927" style="fill:#714437"/><rect x="29.173" y="26.899" width="8" height="56.667" style="fill:#b20944"/><rect x="21.173" y="33.065" width="16" height="17.167" style="fill:#f7ecda"/><rect x="29.173" y="33.065" width="8" height="17.167" style="fill:#ecd6b2"/><rect x="44.756" y="40.274" width="7.583" height="5.559" style="fill:#ecd6b2"/><rect x="60.34" y="33.286" width="8" height="5.559" transform="translate(128.679 72.13) rotate(180)" style="fill:#ecd6b2"/><rect x="60.34" y="71.899" width="8" height="5.559" transform="translate(128.679 149.356) rotate(180)" style="fill:#ecd6b2"/><polygon points="78.909 34.152 86.115 49.733 92.981 46.598 85.851 30.982 78.909 34.152" style="fill:#ecd6b2"/></svg>