<svg id="Layer_1" data-name="Layer 1" xmlns="http://www.w3.org/2000/svg" viewBox="0 0 128 128"><title>BRAIN</title><path d="M64,42.3a10.068,10.068,0,1,0-20.136,0c0,.031,0,.061,0,.092a11.431,11.431,0,0,0-8.415,17.28,13.372,13.372,0,0,0,1.83,23.808A13.381,13.381,0,0,0,64,82.381Z" style="fill:#fed33c"/><path d="M53.932,30.483A11.831,11.831,0,0,0,42.207,40.914,13.18,13.18,0,0,0,33.186,59.1a15.12,15.12,0,0,0,2.477,25.562A15.13,15.13,0,0,0,65.75,82.381V42.3A11.832,11.832,0,0,0,53.932,30.483Zm8.318,51.9a11.625,11.625,0,0,1-23.185,1.236,1.739,1.739,0,0,0,.006-.278q-.037-.46-.036-.931A11.621,11.621,0,0,1,50.642,70.8a1.75,1.75,0,0,0,0-3.5A15.122,15.122,0,0,0,35.653,80.6a11.618,11.618,0,0,1-.506-18.583,12.3,12.3,0,0,0,21.134-8.584,1.75,1.75,0,0,0-3.5,0,8.812,8.812,0,0,1-15.833,5.332,9.682,9.682,0,0,1,7.13-14.632A1.839,1.839,0,0,0,45.613,42.3a8.318,8.318,0,0,1,16.637,0Z" style="fill:#fd9e35"/><path d="M64.018,42.3a10.068,10.068,0,1,1,20.136,0c0,.031,0,.061,0,.092a11.431,11.431,0,0,1,8.415,17.28,13.372,13.372,0,0,1-1.83,23.808,13.381,13.381,0,0,1-26.716-1.1Z" style="fill:#606de0"/><path d="M62.268,42.3V82.381a15.13,15.13,0,0,0,30.088,2.285A15.12,15.12,0,0,0,94.833,59.1a13.18,13.18,0,0,0-9.021-18.19A11.812,11.812,0,0,0,62.268,42.3Zm3.5,0a8.318,8.318,0,0,1,16.637,0,1.839,1.839,0,0,0,1.535,1.829,9.682,9.682,0,0,1,7.13,14.632,8.812,8.812,0,0,1-15.833-5.332,1.75,1.75,0,1,0-3.5,0,12.3,12.3,0,0,0,21.134,8.584A11.618,11.618,0,0,1,92.365,80.6,15.122,15.122,0,0,0,77.377,67.3a1.75,1.75,0,0,0,0,3.5A11.621,11.621,0,0,1,88.984,82.408q0,.47-.036.931a1.739,1.739,0,0,0,.006.278,11.625,11.625,0,0,1-23.185-1.236Z" style="fill:#3647d7"/><path d="M64,9.25A1.75,1.75,0,0,0,62.25,11V21.5a1.75,1.75,0,0,0,3.5,0V11A1.75,1.75,0,0,0,64,9.25Z" style="fill:#fd9e35"/><path d="M100.239,25.286l-7.425,7.425a1.75,1.75,0,1,0,2.475,2.475l7.425-7.425a1.75,1.75,0,0,0-2.475-2.475Z" style="fill:#fd9e35"/><path d="M117,62.25H106.5a1.75,1.75,0,0,0,0,3.5H117a1.75,1.75,0,0,0,0-3.5Z" style="fill:#fd9e35"/><path d="M95.289,92.814a1.75,1.75,0,0,0-2.475,2.475l7.425,7.425a1.75,1.75,0,0,0,2.475-2.475Z" style="fill:#fd9e35"/><path d="M64,104.75a1.75,1.75,0,0,0-1.75,1.75V117a1.75,1.75,0,0,0,3.5,0V106.5A1.75,1.75,0,0,0,64,104.75Z" style="fill:#fd9e35"/><path d="M32.711,92.814l-7.425,7.425a1.75,1.75,0,1,0,2.475,2.475l7.425-7.425a1.75,1.75,0,1,0-2.475-2.475Z" style="fill:#fd9e35"/><path d="M21.5,62.25H11a1.75,1.75,0,0,0,0,3.5H21.5a1.75,1.75,0,0,0,0-3.5Z" style="fill:#fd9e35"/><path d="M27.761,25.286a1.75,1.75,0,0,0-2.475,2.475l7.425,7.425a1.75,1.75,0,1,0,2.475-2.475Z" style="fill:#fd9e35"/></svg>