<svg id="Layer_1" data-name="Layer 1" xmlns="http://www.w3.org/2000/svg" viewBox="0 0 128 128"><title>BRIEFCASE</title><path d="M81.026,33.189a1.75,1.75,0,0,1-1.75-1.75,15.276,15.276,0,0,0-30.553,0,1.75,1.75,0,1,1-3.5,0,18.776,18.776,0,0,1,37.553,0A1.75,1.75,0,0,1,81.026,33.189Z" style="fill:#9f5f4d"/><path d="M79.276,31.439a1.75,1.75,0,0,0,3.5,0A18.8,18.8,0,0,0,64,12.664v3.5A15.293,15.293,0,0,1,79.276,31.439Z" style="fill:#714437"/><rect x="14.57" y="45.501" width="98.86" height="68.086" style="fill:#606de0"/><rect x="64" y="45.501" width="49.43" height="68.086" style="fill:#3647d7"/><polygon points="117 31.44 117 64.37 64 73.93 11 64.37 11 31.44 117 31.44" style="fill:#fc445e"/><path d="M56.219,58.5H71.781a0,0,0,0,1,0,0V94.206a7.083,7.083,0,0,1-7.083,7.083H63.3a7.083,7.083,0,0,1-7.083-7.083V58.5a0,0,0,0,1,0,0Z" style="fill:#fed33c"/><polygon points="64 73.93 117 64.37 117 31.44 64 31.44 64 73.93" style="fill:#b20944"/><path d="M64,101.289h.7a7.083,7.083,0,0,0,7.083-7.083V58.5H64Z" style="fill:#fd9e35"/><path d="M16.75,39.8A1.746,1.746,0,0,1,15,41.55H11v-3.5h4A1.746,1.746,0,0,1,16.75,39.8Z" style="fill:#b20944"/><path d="M105.46,38.05H97.92a1.75,1.75,0,0,0,0,3.5h7.54a1.75,1.75,0,0,0,0-3.5Zm-15.08,0H82.85a1.75,1.75,0,0,0,0,3.5h7.53a1.75,1.75,0,0,0,0-3.5Zm-15.07,0H67.77a1.75,1.75,0,0,0,0,3.5h7.54a1.75,1.75,0,0,0,0-3.5Zm-15.08,0H52.69a1.75,1.75,0,0,0,0,3.5h7.54a1.75,1.75,0,0,0,0-3.5Zm-15.08,0H37.62a1.75,1.75,0,0,0,0,3.5h7.53a1.75,1.75,0,0,0,0-3.5Zm-15.07,0H22.54a1.75,1.75,0,0,0,0,3.5h7.54a1.75,1.75,0,0,0,0-3.5Z" style="fill:#fc445e"/><path d="M117,38.05v3.5h-4a1.75,1.75,0,0,1,0-3.5Z" style="fill:#fc445e"/><path d="M60.23,38.05H52.69a1.75,1.75,0,0,0,0,3.5h7.54a1.75,1.75,0,0,0,0-3.5Zm-15.08,0H37.62a1.75,1.75,0,0,0,0,3.5h7.53a1.75,1.75,0,0,0,0-3.5Zm-15.07,0H22.54a1.75,1.75,0,0,0,0,3.5h7.54a1.75,1.75,0,0,0,0-3.5Z" style="fill:#b20944"/><circle cx="64" cy="93.254" r="1.991" style="fill:#f7ecda"/></svg>