<svg id="Layer_1" data-name="Layer 1" xmlns="http://www.w3.org/2000/svg" viewBox="0 0 128 128"><title>CALENDAR</title><rect x="19.667" y="28.333" width="88.667" height="88.667" style="fill:#f7ecda"/><rect x="64" y="28.333" width="44.333" height="88.667" style="fill:#ecd6b2"/><rect x="19.667" y="17.25" width="88.667" height="11.083" style="fill:#fc445e"/><path d="M39.083,39.764h1.729V45.2a5.548,5.548,0,0,1-.187,1.641,2.323,2.323,0,0,1-.914,1.2,3.032,3.032,0,0,1-1.746.454,2.591,2.591,0,0,1-1.957-.712,2.917,2.917,0,0,1-.691-2.089l1.635-.187a2.287,2.287,0,0,0,.217,1.043.934.934,0,0,0,.855.463.946.946,0,0,0,.82-.331,2.607,2.607,0,0,0,.24-1.374Z" style="fill:#714437"/><path d="M50.4,48.354H48.517l-.75-1.951H44.333l-.709,1.951h-1.84l3.346-8.59h1.834Zm-3.193-3.4-1.184-3.187-1.16,3.188Z" style="fill:#714437"/><path d="M51.341,48.354v-8.59h1.688L56.544,45.5V39.764h1.611v8.59h-1.74l-3.463-5.6v5.6Z" style="fill:#714437"/><path d="M59.978,39.764h1.734v4.652a9.651,9.651,0,0,0,.064,1.436,1.391,1.391,0,0,0,.53.847,1.847,1.847,0,0,0,1.146.319,1.748,1.748,0,0,0,1.113-.3,1.192,1.192,0,0,0,.451-.741,9.664,9.664,0,0,0,.076-1.459V39.764h1.734v4.512a11.593,11.593,0,0,1-.141,2.186,2.419,2.419,0,0,1-.519,1.078,2.62,2.62,0,0,1-1.011.7A4.4,4.4,0,0,1,63.5,48.5a4.757,4.757,0,0,1-1.866-.284,2.669,2.669,0,0,1-1-.738,2.367,2.367,0,0,1-.486-.952,10.432,10.432,0,0,1-.17-2.18Z" style="fill:#714437"/><path d="M76.4,48.354H74.515l-.75-1.951H70.331l-.709,1.951h-1.84l3.346-8.59h1.834Zm-3.193-3.4-1.184-3.187-1.16,3.188Z" style="fill:#714437"/><path d="M77.327,48.354v-8.59h3.65a6.248,6.248,0,0,1,2,.231,1.974,1.974,0,0,1,1,.823,2.474,2.474,0,0,1,.375,1.354,2.293,2.293,0,0,1-.568,1.6,2.73,2.73,0,0,1-1.7.794,4.046,4.046,0,0,1,.929.721A9.79,9.79,0,0,1,84,46.678l1.049,1.676H82.976l-1.254-1.869a12.125,12.125,0,0,0-.914-1.263,1.331,1.331,0,0,0-.521-.357,2.859,2.859,0,0,0-.873-.1h-.352v3.586ZM79.062,43.4h1.283a6.626,6.626,0,0,0,1.559-.105.934.934,0,0,0,.486-.363,1.118,1.118,0,0,0,.176-.645,1.03,1.03,0,0,0-.231-.7,1.062,1.062,0,0,0-.653-.337q-.211-.029-1.266-.029H79.062Z" style="fill:#714437"/><path d="M87.8,48.354V44.738l-3.146-4.975h2.033l2.021,3.4,1.98-3.4h2L89.526,44.75v3.6Z" style="fill:#714437"/><rect x="33.17" y="57.5" width="9.107" height="9.107" style="fill:#606de0"/><rect x="50.688" y="57.5" width="9.107" height="9.107" style="fill:#606de0"/><rect x="68.205" y="57.5" width="9.107" height="9.107" style="fill:#3647d7"/><rect x="85.723" y="57.5" width="9.107" height="9.107" style="fill:#3647d7"/><rect x="33.17" y="74.821" width="9.107" height="9.107" style="fill:#606de0"/><rect x="50.688" y="74.821" width="9.107" height="9.107" style="fill:#606de0"/><rect x="68.205" y="74.821" width="9.107" height="9.107" style="fill:#3647d7"/><rect x="85.723" y="74.821" width="9.107" height="9.107" style="fill:#3647d7"/><rect x="33.17" y="92.143" width="9.107" height="9.107" style="fill:#606de0"/><rect x="50.688" y="92.143" width="9.107" height="9.107" style="fill:#606de0"/><rect x="68.205" y="92.143" width="9.107" height="9.107" style="fill:#3647d7"/><rect x="85.723" y="92.143" width="9.107" height="9.107" style="fill:#3647d7"/><rect x="64" y="17.25" width="44.333" height="11.083" style="fill:#b20944"/><rect x="32.677" y="11" width="7.167" height="11.792" rx="3.583" ry="3.583" style="fill:#fed33c"/><rect x="88.156" y="11" width="7.167" height="11.792" rx="3.583" ry="3.583" style="fill:#fd9e35"/></svg>