<svg id="Layer_1" data-name="Layer 1" xmlns="http://www.w3.org/2000/svg" viewBox="0 0 128 128"><title>CAP</title><circle cx="77.336" cy="30.394" r="7.382" style="fill:#606de0"/><path d="M84.718,30.394a7.382,7.382,0,0,0-7.382-7.382V37.776A7.382,7.382,0,0,0,84.718,30.394Z" style="fill:#3647d7"/><path d="M76.19,31h0A40.81,40.81,0,0,1,117,71.807V89.325a0,0,0,0,1,0,0H35.38a0,0,0,0,1,0,0V71.807A40.81,40.81,0,0,1,76.19,31Z" style="fill:#fd9e35"/><path d="M76.19,31a40.81,40.81,0,0,0-40.81,40.81V89.325H85.9C85.9,37.728,76.19,31,76.19,31Z" style="fill:#fed33c"/><path d="M35.38,89.325,11,102.281S46.432,113.8,74.482,89.325Z" style="fill:#606de0"/><path d="M115.147,71.807H117a0,0,0,0,1,0,0V89.325a0,0,0,0,1,0,0H104.913a0,0,0,0,1,0,0V82.041A10.234,10.234,0,0,1,115.147,71.807Z" style="fill:#3647d7"/><path d="M35.38,71.807v3.8a11.8,11.8,0,1,0,4.728-22.87A40.619,40.619,0,0,0,35.38,71.807Z" style="fill:#fc445e"/></svg>