<svg id="Layer_1" data-name="Layer 1" xmlns="http://www.w3.org/2000/svg" viewBox="0 0 128 128"><title>CHALKBOARD</title><rect x="17" y="19" width="94" height="57.333" style="fill:#f7ecda"/><rect x="64" y="19" width="47" height="57.333" style="fill:#ecd6b2"/><rect x="11" y="11" width="106" height="8" style="fill:#9f5f4d"/><rect x="11" y="76.333" width="106" height="8" style="fill:#9f5f4d"/><polygon points="46.25 117 38.5 117 56.25 84.333 64 84.333 46.25 117" style="fill:#606de0"/><polygon points="81.75 117 89.5 117 71.75 84.333 64 84.333 81.75 117" style="fill:#3647d7"/><rect x="84.75" y="70.25" width="26.25" height="6.083" style="fill:#3647d7"/><path d="M47.536,60.346H42.611V41.787A16.977,16.977,0,0,1,36.25,45.52V41.051a14.241,14.241,0,0,0,4.188-2.392,9.09,9.09,0,0,0,3.1-4.109h4Z" style="fill:#fed33c"/><path d="M71.527,55.772v4.574H54.265a11.888,11.888,0,0,1,1.682-4.916,32.711,32.711,0,0,1,5.538-6.16,34.832,34.832,0,0,0,4.083-4.206,5.418,5.418,0,0,0,1.016-3.014,3.427,3.427,0,0,0-.885-2.532,3.761,3.761,0,0,0-4.9.044,4.77,4.77,0,0,0-1.051,3.084l-4.907-.491q.438-4.066,2.751-5.836a9.239,9.239,0,0,1,5.783-1.77,8.358,8.358,0,0,1,5.976,2.05,6.725,6.725,0,0,1,2.173,5.1A8.877,8.877,0,0,1,70.9,45a13.434,13.434,0,0,1-1.972,3.286,31.549,31.549,0,0,1-3.225,3.277Q63.378,53.7,62.756,54.4a8.5,8.5,0,0,0-1.008,1.367Z" style="fill:#fc445e"/><path d="M74.681,53.529l4.767-.578a4.513,4.513,0,0,0,1.227,2.786,3.355,3.355,0,0,0,2.418.964,3.322,3.322,0,0,0,2.567-1.157A4.484,4.484,0,0,0,86.7,52.425a4.182,4.182,0,0,0-1-2.944,3.184,3.184,0,0,0-2.436-1.087,8.591,8.591,0,0,0-2.261.368l.543-4.013a4.316,4.316,0,0,0,3.049-.867,3.088,3.088,0,0,0,1.051-2.445A2.654,2.654,0,0,0,82.83,38.6a2.967,2.967,0,0,0-2.156.876,4.116,4.116,0,0,0-1.087,2.559l-4.539-.771a10.144,10.144,0,0,1,1.428-3.724,6.446,6.446,0,0,1,2.664-2.191,8.947,8.947,0,0,1,3.829-.8,7.638,7.638,0,0,1,5.818,2.313,6.038,6.038,0,0,1,1.805,4.276q0,3.382-3.7,5.4a5.982,5.982,0,0,1,3.531,2.12,6.153,6.153,0,0,1,1.323,3.978A7.716,7.716,0,0,1,89.279,58.4a9.227,9.227,0,0,1-11.934.377A7.886,7.886,0,0,1,74.681,53.529Z" style="fill:#1db6bc"/><rect x="64" y="11" width="53" height="8" style="fill:#714437"/><rect x="64" y="76.333" width="53" height="8" style="fill:#714437"/></svg>