<svg id="Layer_1" data-name="Layer 1" xmlns="http://www.w3.org/2000/svg" viewBox="0 0 128 128"><title>CHEMISTRY</title><path d="M102.924,108.677,81.6,54.133a62.329,62.329,0,0,1-4.279-22.7V20.862H50.681V31.437a62.329,62.329,0,0,1-4.279,22.7L25.076,108.677A6.1,6.1,0,0,0,30.758,117H97.242A6.1,6.1,0,0,0,102.924,108.677Z" style="fill:#f7ecda"/><path d="M81.6,54.133a62.328,62.328,0,0,1-4.279-22.7V20.862H64V117H97.242a6.1,6.1,0,0,0,5.682-8.323Z" style="fill:#ecd6b2"/><path d="M102.924,108.677,82.1,55.412c-7.256-1.253-15.653-.038-25.036,2.76-5.036,1.5-9.055,1.116-12.2-.1L25.076,108.677A6.1,6.1,0,0,0,30.758,117H97.242A6.1,6.1,0,0,0,102.924,108.677Z" style="fill:#1db6bc"/><path d="M97.24,117H64V56.37c6.63-1.45,12.68-1.89,18.1-.96l2.77,7.08,1.37,3.5,2.65,6.8,1.37,3.5,2.66,6.81,1.37,3.5,2.66,6.81,1.37,3.5,2.66,6.81,1.37,3.5.57,1.46A6.094,6.094,0,0,1,97.24,117Z" style="fill:#17799b"/><rect x="46.796" y="11" width="34.408" height="9.862" style="fill:#606de0"/><path d="M49.355,68.467A1.75,1.75,0,0,0,47.1,69.487L33.5,105.561a1.75,1.75,0,1,0,3.275,1.234l13.6-36.074A1.75,1.75,0,0,0,49.355,68.467Z" style="fill:#f7ecda"/><path d="M86.24,65.99H77.18a1.75,1.75,0,1,1,0-3.5h7.69Z" style="fill:#1db6bc"/><path d="M90.26,76.29H80.77a1.75,1.75,0,0,1,0-3.5h8.12Z" style="fill:#1db6bc"/><path d="M94.29,86.6H84.95a1.75,1.75,0,0,1,0-3.5h7.97Z" style="fill:#1db6bc"/><path d="M98.32,96.91H88.26a1.75,1.75,0,1,1,0-3.5h8.69Z" style="fill:#1db6bc"/><path d="M102.35,107.22H92.44a1.75,1.75,0,0,1,0-3.5h8.54Z" style="fill:#1db6bc"/><rect x="64" y="11" width="17.204" height="9.862" style="fill:#3647d7"/></svg>