<svg id="Layer_1" data-name="Layer 1" xmlns="http://www.w3.org/2000/svg" viewBox="0 0 128 128"><title>CHESS</title><polygon points="81.88 94.21 46.13 94.21 51.13 30.35 76.88 30.35 81.88 94.21" style="fill:#fed33c"/><polygon points="64 94.21 81.88 94.21 76.88 30.35 64 30.35 64 94.21" style="fill:#fd9e35"/><path d="M39.122,102.711H88.878A14.289,14.289,0,0,1,103.167,117v0a0,0,0,0,1,0,0H24.833a0,0,0,0,1,0,0v0a14.289,14.289,0,0,1,14.289-14.289Z" style="fill:#606de0"/><rect x="40.375" y="94.212" width="47.25" height="8.499" style="fill:#fc445e"/><rect x="45.687" y="23.5" width="36.625" height="6.845" style="fill:#fc445e"/><polygon points="75.229 11 73.229 16.25 67.604 16.25 67.604 11 60.396 11 60.396 16.25 54.771 16.25 52.771 11 45.95 11 47.95 23.5 80.05 23.5 82.05 11 75.229 11" style="fill:#fed33c"/><polygon points="64 50 64 59.75 48.83 59.75 49.59 50 64 50" style="fill:#fd9e35"/><rect x="57.292" y="67.5" width="16.436" height="9.75" style="fill:#fed33c"/><polygon points="81.32 87 68.29 87 68.29 77.25 80.55 77.25 81.32 87" style="fill:#fed33c"/><polygon points="73.229 16.25 67.604 16.25 67.604 11 64 11 64 23.5 80.05 23.5 82.05 11 75.229 11 73.229 16.25" style="fill:#fd9e35"/><path d="M64,102.711V117h39.167a14.289,14.289,0,0,0-14.289-14.289Z" style="fill:#3647d7"/><rect x="64" y="23.5" width="18.312" height="6.845" style="fill:#b20944"/><rect x="64" y="94.212" width="23.625" height="8.499" style="fill:#b20944"/></svg>