<svg id="Layer_1" data-name="Layer 1" xmlns="http://www.w3.org/2000/svg" viewBox="0 0 128 128"><title>CLASS</title><rect x="45.5" y="11.121" width="71.5" height="40.006" style="fill:#1db6bc"/><rect x="81.375" y="11.121" width="35.625" height="40.006" style="fill:#17799b"/><path d="M32.1,100.93a15.949,15.949,0,0,0-15.949,15.949h31.9A15.949,15.949,0,0,0,32.1,100.93Z" style="fill:#1db6bc"/><circle cx="32.102" cy="95.424" r="8.734" style="fill:#f7ecda"/><path d="M64,100.93a15.949,15.949,0,0,0-15.949,15.949h31.9A15.949,15.949,0,0,0,64,100.93Z" style="fill:#606de0"/><circle cx="64" cy="95.424" r="8.734" style="fill:#f7ecda"/><path d="M95.9,100.93a15.949,15.949,0,0,0-15.949,15.949h31.9A15.949,15.949,0,0,0,95.9,100.93Z" style="fill:#fed33c"/><circle cx="95.898" cy="95.424" r="8.734" style="fill:#f7ecda"/><path d="M26.949,51.127A15.949,15.949,0,0,0,11,67.076H42.9A15.949,15.949,0,0,0,26.949,51.127Z" style="fill:#fc445e"/><circle cx="26.949" cy="45.621" r="8.734" style="fill:#f7ecda"/><circle cx="64.887" cy="31.124" r="9.621" style="fill:#fed33c"/><path d="M83.125,25.756H107a1.75,1.75,0,0,0,0-3.5H83.125a1.75,1.75,0,0,0,0,3.5Z" style="fill:#f7ecda"/><path d="M107,29.374H83.125a1.75,1.75,0,1,0,0,3.5H107a1.75,1.75,0,0,0,0-3.5Z" style="fill:#f7ecda"/><path d="M107,36.492H83.125a1.75,1.75,0,0,0,0,3.5H107a1.75,1.75,0,0,0,0-3.5Z" style="fill:#f7ecda"/><polygon points="71.206 73.954 65.773 73.954 75.773 51.127 81.206 51.127 71.206 73.954" style="fill:#9f5f4d"/><polygon points="91.206 73.954 96.639 73.954 86.639 51.127 81.206 51.127 91.206 73.954" style="fill:#714437"/><path d="M32.1,100.93v15.949H48.051A15.949,15.949,0,0,0,32.1,100.93Z" style="fill:#17799b"/><path d="M64,100.93v15.949H79.949A15.949,15.949,0,0,0,64,100.93Z" style="fill:#3647d7"/><path d="M95.9,100.93v15.949h15.949A15.949,15.949,0,0,0,95.9,100.93Z" style="fill:#fd9e35"/><path d="M40.836,95.424A8.734,8.734,0,0,0,32.1,86.69v17.468A8.734,8.734,0,0,0,40.836,95.424Z" style="fill:#ecd6b2"/><path d="M26.949,51.127V67.076H42.9A15.949,15.949,0,0,0,26.949,51.127Z" style="fill:#b20944"/><path d="M35.683,45.621a8.734,8.734,0,0,0-8.734-8.734V54.355A8.734,8.734,0,0,0,35.683,45.621Z" style="fill:#ecd6b2"/><path d="M104.632,95.424A8.734,8.734,0,0,0,95.9,86.69v17.468A8.734,8.734,0,0,0,104.632,95.424Z" style="fill:#ecd6b2"/><path d="M72.734,95.424A8.734,8.734,0,0,0,64,86.69v17.468A8.734,8.734,0,0,0,72.734,95.424Z" style="fill:#ecd6b2"/></svg>