<svg id="Layer_1" data-name="Layer 1" xmlns="http://www.w3.org/2000/svg" viewBox="0 0 128 128"><title>CONSULTING</title><polygon points="117 11 77.983 11 77.983 36.741 84.666 36.741 84.666 43.695 91.621 36.741 117 36.741 117 11" style="fill:#fed33c"/><rect x="97.491" y="11" width="19.509" height="25.741" style="fill:#fd9e35"/><path d="M90.48,106.11V117H11V106.11A33.052,33.052,0,0,1,44.11,73H57.37a33.079,33.079,0,0,1,33.11,33.11Z" style="fill:#606de0"/><path d="M57.37,73H50.741v44H90.48V106.11A33.1,33.1,0,0,0,57.37,73Z" style="fill:#3647d7"/><path d="M50.74,79.85l-7.9,8.37L29.27,76.5a32.988,32.988,0,0,1,6.44-2.43Z" style="fill:#1db6bc"/><path d="M72.21,76.5,58.64,88.22l-7.9-8.37,15.03-5.78A32.989,32.989,0,0,1,72.21,76.5Z" style="fill:#17799b"/><path d="M50.741,26.037h0A20.708,20.708,0,0,1,71.449,46.746V61.388a18.46,18.46,0,0,1-18.46,18.46h-4.5a18.46,18.46,0,0,1-18.46-18.46V46.746A20.708,20.708,0,0,1,50.741,26.037Z" style="fill:#f7ecda"/><path d="M50.741,26.037h0v53.81h2.25a18.46,18.46,0,0,0,18.46-18.46V46.745A20.708,20.708,0,0,0,50.741,26.037Z" style="fill:#ecd6b2"/><path d="M23.5,54.013a6.533,6.533,0,0,0,6.533,6.533V47.479A6.533,6.533,0,0,0,23.5,54.013Z" style="fill:#ecd6b2"/><path d="M77.983,54.013a6.533,6.533,0,0,1-6.533,6.533V47.479A6.533,6.533,0,0,1,77.983,54.013Z" style="fill:#ecd6b2"/><path d="M27.81,101.64V117h-3.5V101.64a1.75,1.75,0,0,1,3.5,0Z" style="fill:#3647d7"/><path d="M77.18,101.64V117h-3.5V101.64a1.75,1.75,0,0,1,3.5,0Z" style="fill:#606de0"/><polygon points="50.742 90.629 47.219 83.584 50.74 79.847 54.264 83.584 50.742 90.629" style="fill:#fed33c"/><polygon points="55.842 117 45.64 117 50.742 90.629 55.842 117" style="fill:#fed33c"/><path d="M50.741,19.333H28.5S26.767,38,43.25,38H53.736a19.784,19.784,0,0,1,13.917,5.722l3.8,3.757v-.734C71.449,35.309,67.333,19.333,50.741,19.333Z" style="fill:#9f5f4d"/><path d="M50.74,71.952A6.858,6.858,0,0,1,43.889,65.1a1.75,1.75,0,0,1,3.5,0,3.351,3.351,0,0,0,6.7,0,1.75,1.75,0,0,1,3.5,0A6.859,6.859,0,0,1,50.74,71.952Z" style="fill:#9f5f4d"/><circle cx="42.613" cy="50.844" r="2.969" style="fill:#9f5f4d"/><circle cx="58.87" cy="50.844" r="2.969" style="fill:#9f5f4d"/><circle cx="89.363" cy="23.25" r="2.969" style="fill:#9f5f4d"/><circle cx="105.62" cy="23.25" r="2.969" style="fill:#9f5f4d"/><circle cx="97.491" cy="23.25" r="2.969" style="fill:#9f5f4d"/><path d="M50.741,19.333h0V38h3a19.784,19.784,0,0,1,13.917,5.722l3.8,3.757v-.734C71.449,35.309,67.333,19.333,50.741,19.333Z" style="fill:#714437"/><polygon points="50.741 117 50.742 90.629 55.842 117 50.741 117" style="fill:#fd9e35"/><polygon points="50.74 79.847 54.264 83.584 50.742 90.629 50.74 79.847" style="fill:#fd9e35"/></svg>