<svg id="Layer_1" data-name="Layer 1" xmlns="http://www.w3.org/2000/svg" viewBox="0 0 128 128"><title>DESK</title><rect x="11" y="53.376" width="106" height="8" style="fill:#fed33c"/><rect x="17.333" y="61.376" width="93.333" height="46.172" style="fill:#9f5f4d"/><polygon points="26.277 115.51 20.277 115.51 24.611 107.548 30.611 107.548 26.277 115.51" style="fill:#9f5f4d"/><polygon points="101.723 115.51 107.723 115.51 103.389 107.548 97.389 107.548 101.723 115.51" style="fill:#714437"/><rect x="19.908" y="12.49" width="51.924" height="33.25" style="fill:#1db6bc"/><polygon points="52.938 53.376 38.938 53.376 41.938 45.714 49.938 45.714 52.938 53.376" style="fill:#606de0"/><circle cx="45.87" cy="29.115" r="1.344" style="fill:#f7ecda"/><rect x="82.813" y="29.115" width="7.875" height="24.261" style="fill:#fc445e"/><rect x="95.453" y="28.589" width="7.875" height="24.261" transform="translate(-7.893 45.902) rotate(-25.044)" style="fill:#606de0"/><rect x="82.813" y="34.839" width="7.875" height="9.063" style="fill:#f7ecda"/><rect x="64" y="61.376" width="46.667" height="46.172" style="fill:#714437"/><rect x="64" y="53.376" width="53" height="8" style="fill:#fd9e35"/><rect x="86.75" y="29.115" width="3.938" height="24.261" style="fill:#b20944"/><rect x="86.75" y="34.839" width="3.938" height="9.063" style="fill:#ecd6b2"/><polygon points="94.455 29.636 104.663 51.644 108.092 50.042 97.822 28.063 94.455 29.636" style="fill:#3647d7"/><rect x="45.938" y="12.49" width="25.895" height="33.25" style="fill:#17799b"/><path d="M45.938,27.785v2.66a1.331,1.331,0,0,0,0-2.66Z" style="fill:#ecd6b2"/><polygon points="45.938 53.376 52.938 53.376 49.938 45.714 45.938 45.714 45.938 53.376" style="fill:#3647d7"/></svg>