<svg id="Layer_1" data-name="Layer 1" xmlns="http://www.w3.org/2000/svg" viewBox="0 0 128 128"><title>DIPLOMA</title><path d="M111.39,112.06V117H16.61v-4.94c0-11.06,5.76-20.92,14.7-27.26a39.028,39.028,0,0,1,8.46-4.54,40.926,40.926,0,0,1,7.05-2.05h.01a42.433,42.433,0,0,1,8.12-.78h18.1C94.22,77.43,111.39,92.93,111.39,112.06Z" style="fill:#1db6bc"/><path d="M111.39,112.06V117H64V77.43h9.05a42.538,42.538,0,0,1,8.13.78,40.648,40.648,0,0,1,7.05,2.04C101.85,85.56,111.39,97.8,111.39,112.06Z" style="fill:#17799b"/><path d="M64,84.81l-8.51,9.02L39.77,80.26a40.926,40.926,0,0,1,7.05-2.05h.01Z" style="fill:#fed33c"/><path d="M88.23,80.25,72.51,93.83,64,84.81l17.18-6.6A40.648,40.648,0,0,1,88.23,80.25Z" style="fill:#fd9e35"/><path d="M63.018,26.839h1.964A21.326,21.326,0,0,1,86.308,48.165V65.8A19.01,19.01,0,0,1,67.3,84.806H60.7A19.01,19.01,0,0,1,41.692,65.8V48.165A21.326,21.326,0,0,1,63.018,26.839Z" style="fill:#f7ecda"/><path d="M64.982,26.839H64V84.806h3.3A19.01,19.01,0,0,0,86.308,65.8V48.165A21.326,21.326,0,0,0,64.982,26.839Z" style="fill:#ecd6b2"/><path d="M64,112.648V117H16.614v-4.937c0-11.067,5.753-20.921,14.7-27.26Z" style="fill:#606de0"/><path d="M64,112.648V117h47.386v-4.937c0-11.067-5.753-20.921-14.7-27.26Z" style="fill:#3647d7"/><path d="M33.122,57.126a8.57,8.57,0,0,0,8.57,8.57V48.556A8.57,8.57,0,0,0,33.122,57.126Z" style="fill:#ecd6b2"/><path d="M94.878,57.126a8.57,8.57,0,0,1-8.57,8.57V48.556A8.57,8.57,0,0,1,94.878,57.126Z" style="fill:#ecd6b2"/><circle cx="54.497" cy="54.799" r="6.243" style="fill:#fff"/><circle cx="73.503" cy="54.799" r="6.243" style="fill:#fff"/><path d="M73.5,46.806a7.977,7.977,0,0,0-6.353,3.163,8.455,8.455,0,0,0-6.28.026,7.9,7.9,0,1,0,1.455,3.184,5.05,5.05,0,0,1,3.356-.021A7.993,7.993,0,1,0,73.5,46.806ZM54.5,59.292A4.493,4.493,0,1,1,58.99,54.8,4.5,4.5,0,0,1,54.5,59.292Zm19.006,0A4.493,4.493,0,1,1,78,54.8,4.5,4.5,0,0,1,73.5,59.292Z" style="fill:#9f5f4d"/><path d="M39.16,108.29V117h-3.5v-8.71a1.75,1.75,0,0,1,3.5,0Z" style="fill:#3647d7"/><path d="M92.34,108.29V117h-3.5v-8.71a1.75,1.75,0,1,1,3.5,0Z" style="fill:#606de0"/><path d="M64,76.493a17.006,17.006,0,0,1-8.037-1.756,1.75,1.75,0,1,1,1.723-3.047A13.706,13.706,0,0,0,64,72.993a13.7,13.7,0,0,0,6.315-1.3,1.75,1.75,0,0,1,1.723,3.047A17,17,0,0,1,64,76.493Z" style="fill:#9f5f4d"/><path d="M42.993,20.763V39.085c0,.857,9.4,2.482,21.007,2.482s21.007-1.625,21.007-2.482V20.763Z" style="fill:#606de0"/><polygon points="64 11 31.572 21.886 64 32.771 96.428 21.886 64 11" style="fill:#1db6bc"/><path d="M93.521,49.384a1.75,1.75,0,0,1-1.75-1.75V22.861a1.75,1.75,0,0,1,3.5,0V47.634A1.75,1.75,0,0,1,93.521,49.384Z" style="fill:#9f5f4d"/><path d="M64,41.567c11.6,0,21.007-1.625,21.007-2.482V20.763H64Z" style="fill:#3647d7"/><polygon points="96.428 21.886 64 11 64 32.771 96.428 21.886" style="fill:#17799b"/><polygon points="97.644 59.667 93.521 57.118 89.399 59.667 89.399 47.634 97.644 47.634 97.644 59.667" style="fill:#fd9e35"/></svg>