<svg id="Layer_1" data-name="Layer 1" xmlns="http://www.w3.org/2000/svg" viewBox="0 0 128 128"><title>E LEARNING</title><rect x="11" y="25.364" width="106" height="69.672" style="fill:#f7ecda"/><rect x="64" y="25.364" width="53" height="69.672" style="fill:#ecd6b2"/><rect x="17.188" y="31.128" width="93.623" height="52.304" style="fill:#1db6bc"/><rect x="64" y="31.128" width="46.812" height="52.304" style="fill:#17799b"/><polygon points="77.667 110.934 50.333 110.934 54.333 95.036 73.667 95.036 77.667 110.934" style="fill:#606de0"/><path d="M48.691,110.934H79.309A6.066,6.066,0,0,1,85.375,117v0a0,0,0,0,1,0,0H42.625a0,0,0,0,1,0,0v0A6.066,6.066,0,0,1,48.691,110.934Z" style="fill:#9f5f4d"/><rect x="26.5" y="13.274" width="37.5" height="54.575" style="fill:#fed33c"/><rect x="64" y="13.274" width="37.5" height="54.575" style="fill:#fd9e35"/><path d="M64,63.606a67.388,67.388,0,0,0-31.132,0V13.274s15.566-5.117,31.132,0Z" style="fill:#f7ecda"/><path d="M64,63.606a67.388,67.388,0,0,1,31.132,0V13.274S79.566,8.157,64,13.274Z" style="fill:#ecd6b2"/><path d="M58.886,22.473c-10.333-3.4-20.478-.141-20.9,0A1.75,1.75,0,0,0,39.073,25.8c.094-.031,9.509-3.03,18.721,0a1.75,1.75,0,1,0,1.093-3.324Z" style="fill:#714437"/><path d="M58.886,31.487c-10.333-3.4-20.478-.141-20.9,0a1.75,1.75,0,0,0,1.091,3.325c.094-.03,9.509-3.029,18.721,0a1.75,1.75,0,1,0,1.093-3.324Z" style="fill:#714437"/><path d="M58.886,40.5c-10.333-3.4-20.478-.141-20.9,0a1.75,1.75,0,0,0,1.091,3.325c.094-.031,9.509-3.03,18.721,0A1.75,1.75,0,1,0,58.886,40.5Z" style="fill:#714437"/><path d="M58.886,49.517c-10.333-3.4-20.478-.141-20.9,0a1.75,1.75,0,1,0,1.093,3.324c.094-.03,9.466-3.041,18.719,0a1.75,1.75,0,1,0,1.093-3.324Z" style="fill:#714437"/><path d="M69.66,25.885a1.754,1.754,0,0,0,.547-.088c9.193-3.021,18.587-.041,18.72,0a1.75,1.75,0,0,0,1.092-3.325c-.428-.141-10.569-3.4-20.905,0a1.75,1.75,0,0,0,.547,3.412Z" style="fill:#714437"/><path d="M90.019,31.487c-.428-.141-10.569-3.4-20.905,0a1.75,1.75,0,1,0,1.094,3.324c9.193-3.021,18.587-.041,18.72,0a1.75,1.75,0,0,0,1.092-3.325Z" style="fill:#714437"/><path d="M90.019,40.5c-.428-.141-10.569-3.4-20.905,0a1.75,1.75,0,1,0,1.094,3.324c9.193-3.022,18.587-.042,18.72,0A1.75,1.75,0,0,0,90.019,40.5Z" style="fill:#714437"/><path d="M90.019,49.517c-.428-.141-10.569-3.4-20.905,0a1.75,1.75,0,1,0,1.094,3.324c9.192-3.021,18.589-.042,18.72,0a1.75,1.75,0,0,0,1.092-3.325Z" style="fill:#714437"/><path d="M64,110.934V117H85.375a6.066,6.066,0,0,0-6.066-6.066Z" style="fill:#714437"/><polygon points="64 110.934 77.667 110.934 73.667 95.036 64 95.036 64 110.934" style="fill:#3647d7"/></svg>