<svg id="Layer_1" data-name="Layer 1" xmlns="http://www.w3.org/2000/svg" viewBox="0 0 128 128"><title>ECONOMY</title><rect x="11" y="25.79" width="106" height="50.25" style="fill:#1db6bc"/><path d="M110.6,63.4V38.434a6.49,6.49,0,0,1-6.49-6.49H23.893a6.49,6.49,0,0,1-6.49,6.49V63.4a6.49,6.49,0,0,1,6.49,6.49h80.215A6.49,6.49,0,0,1,110.6,63.4Z" style="fill:#f7ecda"/><ellipse cx="64" cy="50.914" rx="13" ry="18.97" style="fill:#fed33c"/><rect x="64" y="25.79" width="53" height="50.25" style="fill:#17799b"/><path d="M104.107,31.944H64v37.94h40.107a6.49,6.49,0,0,1,6.49-6.49V38.434A6.49,6.49,0,0,1,104.107,31.944Z" style="fill:#ecd6b2"/><path d="M77,50.915c0-10.477-5.82-18.97-13-18.97v37.94C71.18,69.885,77,61.391,77,50.915Z" style="fill:#fd9e35"/><path d="M65.75,49.421V44.5a2.65,2.65,0,0,1,.917,2,1.75,1.75,0,1,0,3.5,0,6.176,6.176,0,0,0-4.417-5.91V40.07a1.75,1.75,0,0,0-3.5,0v.517a6.162,6.162,0,0,0,0,11.82v4.92a2.65,2.65,0,0,1-.917-2,1.75,1.75,0,0,0-3.5,0,6.175,6.175,0,0,0,4.417,5.91v.516a1.75,1.75,0,0,0,3.5,0v-.516a6.163,6.163,0,0,0,0-11.821ZM61.333,46.5a2.65,2.65,0,0,1,.917-2v3.991A2.649,2.649,0,0,1,61.333,46.5ZM65.75,57.328V53.335a2.632,2.632,0,0,1,0,3.993Z" style="fill:#714437"/><circle cx="98.276" cy="76.04" r="18.724" style="fill:#9f5f4d"/><path d="M99.923,57.4V94.68a18.712,18.712,0,0,0,0-37.281Z" style="fill:#714437"/><circle cx="93.776" cy="83.487" r="18.724" style="fill:#fed33c"/><path d="M112.5,83.487A18.724,18.724,0,0,0,93.776,64.763V102.21A18.724,18.724,0,0,0,112.5,83.487Z" style="fill:#fd9e35"/><path d="M95.526,81.993V77.074a2.65,2.65,0,0,1,.917,2,1.75,1.75,0,0,0,3.5,0,6.176,6.176,0,0,0-4.417-5.91v-.517a1.75,1.75,0,0,0-3.5,0v.517a6.162,6.162,0,0,0,0,11.82V89.9a2.65,2.65,0,0,1-.917-2,1.75,1.75,0,0,0-3.5,0,6.176,6.176,0,0,0,4.417,5.91v.516a1.75,1.75,0,0,0,3.5,0v-.516a6.163,6.163,0,0,0,0-11.821ZM91.109,79.07a2.65,2.65,0,0,1,.917-2v3.992A2.649,2.649,0,0,1,91.109,79.07ZM95.526,89.9V85.907a2.632,2.632,0,0,1,0,3.993Z" style="fill:#714437"/></svg>