<svg id="Layer_1" data-name="Layer 1" xmlns="http://www.w3.org/2000/svg" viewBox="0 0 128 128"><title>ENGINEERING</title><path d="M99.75,50.747V42.753H90.216a26.374,26.374,0,0,0-4.856-11.711L92.105,24.3l-5.653-5.653-6.745,6.745A26.375,26.375,0,0,0,68,20.534V11H60v9.534a26.375,26.375,0,0,0-11.711,4.856l-6.745-6.745L35.895,24.3l6.745,6.745a26.374,26.374,0,0,0-4.856,11.711H28.25v7.994h9.534a26.374,26.374,0,0,0,4.856,11.711L35.895,69.2l5.653,5.653,6.745-6.745A26.374,26.374,0,0,0,60,72.966V82.5H68V72.966a26.374,26.374,0,0,0,11.711-4.856l6.745,6.745L92.105,69.2l-6.745-6.745a26.374,26.374,0,0,0,4.856-11.711Z" style="fill:#fed33c"/><path d="M68,97.725V59.05a12.931,12.931,0,0,0,0-24.6v12.3H60v-12.3a12.931,12.931,0,0,0,0,24.6V97.725A10.293,10.293,0,0,0,60.82,117v-9.787H67.18V117A10.293,10.293,0,0,0,68,97.725Z" style="fill:#fc445e"/><path d="M85.361,31.042,92.105,24.3l-5.653-5.653-6.745,6.745A26.374,26.374,0,0,0,68,20.534V11H64V82.5h4V72.966a26.375,26.375,0,0,0,11.711-4.856l6.745,6.745L92.105,69.2l-6.745-6.745a26.373,26.373,0,0,0,4.856-11.711H99.75V42.753H90.216A26.374,26.374,0,0,0,85.361,31.042Z" style="fill:#fd9e35"/><path d="M76.936,46.75A12.936,12.936,0,0,0,68,34.451v12.3H64v60.463h3.18V117A10.293,10.293,0,0,0,68,97.725V59.05A12.936,12.936,0,0,0,76.936,46.75Z" style="fill:#b20944"/></svg>