<svg id="Layer_1" data-name="Layer 1" xmlns="http://www.w3.org/2000/svg" viewBox="0 0 128 128"><title>EXAM</title><polygon points="85.924 117 17.591 117 17.591 11 71.174 11 85.924 25.75 85.924 117" style="fill:#f7ecda"/><polygon points="71.174 11 53.827 11 53.827 117 85.924 117 85.924 25.75 71.174 11" style="fill:#ecd6b2"/><polygon points="85.924 25.75 71.174 25.75 71.174 11 85.924 25.75" style="fill:#f7ecda"/><path d="M73.424,44h-26a1.75,1.75,0,0,1,0-3.5h26a1.75,1.75,0,0,1,0,3.5Z" style="fill:#f7ecda"/><rect x="28.424" y="56.752" width="8.5" height="8.5" style="fill:#fc445e"/><path d="M73.424,62.752h-26a1.75,1.75,0,0,1,0-3.5h26a1.75,1.75,0,0,1,0,3.5Z" style="fill:#f7ecda"/><rect x="28.424" y="75.504" width="8.5" height="8.5" style="fill:#fc445e"/><path d="M73.424,81.5h-26a1.75,1.75,0,0,1,0-3.5h26a1.75,1.75,0,0,1,0,3.5Z" style="fill:#f7ecda"/><rect x="28.424" y="94.256" width="8.5" height="8.5" style="fill:#fc445e"/><path d="M73.424,100.256h-26a1.75,1.75,0,0,1,0-3.5h26a1.75,1.75,0,0,1,0,3.5Z" style="fill:#f7ecda"/><path d="M85.957,89.351l-12.2,9.155-.33-15.252L97.172,34.44a6.969,6.969,0,0,1,9.315-3.218h0a6.969,6.969,0,0,1,3.218,9.315Z" style="fill:#fed33c"/><path d="M106.488,31.222a6.969,6.969,0,0,0-9.315,3.218L93.4,42.191l12.533,6.1,3.771-7.751A6.969,6.969,0,0,0,106.488,31.222Z" style="fill:#fc445e"/><path d="M32.674,48.25a1.75,1.75,0,0,1-1.237-.513L28.4,44.7a1.75,1.75,0,0,1,2.475-2.475L32.5,43.846,35.9,39.374A1.75,1.75,0,1,1,38.686,41.5l-4.619,6.065a1.755,1.755,0,0,1-1.275.686C32.752,48.249,32.713,48.25,32.674,48.25Z" style="fill:#1db6bc"/><path d="M109.705,40.538a6.969,6.969,0,0,0-3.218-9.315h0L73.754,98.506l12.2-9.155Z" style="fill:#fd9e35"/><path d="M105.935,48.288l3.771-7.751a6.969,6.969,0,0,0-3.218-9.315L99.668,45.24Z" style="fill:#b20944"/></svg>