<svg id="Layer_1" data-name="Layer 1" xmlns="http://www.w3.org/2000/svg" viewBox="0 0 128 128"><title>GEOGRAPHY</title><circle cx="57.795" cy="43.667" r="32.667" style="fill:#1db6bc"/><path d="M88.073,15.844a1.749,1.749,0,0,0-2.475,0L81.05,20.392a1.75,1.75,0,1,0,2.475,2.475l4.548-4.548A1.749,1.749,0,0,0,88.073,15.844Z" style="fill:#fc445e"/><path d="M34.853,66.589,30.3,71.138a1.75,1.75,0,1,0,2.475,2.475l4.548-4.549a1.75,1.75,0,0,0-2.475-2.475Z" style="fill:#fc445e"/><path d="M90.461,43.667A32.667,32.667,0,0,0,57.794,11V76.333A32.667,32.667,0,0,0,90.461,43.667Z" style="fill:#17799b"/><path d="M53.774,76.078C39.5,72.24,40.045,60.167,45.545,55.167s5.5-16.181-7-17.25c-9.653-.826-10.638-7.4-10.642-7.424A32.66,32.66,0,0,0,53.774,76.078Z" style="fill:#606de0"/><path d="M90.461,43.667A32.672,32.672,0,0,0,65.235,11.861c-.041.058-4.57,6.505,3.56,13.972,8.167,7.5,10.833,18,4.167,25.5A9.389,9.389,0,0,0,80.335,67.3,32.563,32.563,0,0,0,90.461,43.667Z" style="fill:#3647d7"/><path d="M41.471,108.5H74.118a8.5,8.5,0,0,1,8.5,8.5v0a0,0,0,0,1,0,0H32.971a0,0,0,0,1,0,0v0A8.5,8.5,0,0,1,41.471,108.5Z" style="fill:#606de0"/><path d="M89.684,11.777,85.441,16.02A39.1,39.1,0,1,1,30.148,71.314L25.9,75.556A44.9,44.9,0,0,0,54.8,88.633V108.5h5.993V88.633A45.063,45.063,0,0,0,89.684,11.777Z" style="fill:#fed33c"/><path d="M85.441,16.02A39.08,39.08,0,0,1,57.794,82.747V108.5h3V88.633A45.063,45.063,0,0,0,89.684,11.777Z" style="fill:#fd9e35"/><path d="M57.794,108.5V117H82.618a8.5,8.5,0,0,0-8.5-8.5Z" style="fill:#3647d7"/></svg>