<svg id="Layer_1" data-name="Layer 1" xmlns="http://www.w3.org/2000/svg" viewBox="0 0 128 128"><title>GRADUATION</title><path d="M109.167,73H18.833v28.667h90.333c4.326,0,7.833-6.417,7.833-14.333S113.493,73,109.167,73Z" style="fill:#f7ecda"/><path d="M26.67,87.333c0,7.92-3.51,14.33-7.84,14.33S11,95.253,11,87.333,14.51,73,18.83,73,26.67,79.413,26.67,87.333Z" style="fill:#ecd6b2"/><path d="M26.67,87.333c0,7.92-3.51,14.33-7.84,14.33-4.16-9.83,0-14.33,0-14.33Z" style="fill:#f7ecda"/><path d="M109.167,73H64l9.667,14.333L64,101.667h45.167c4.326,0,7.833-6.417,7.833-14.333S113.493,73,109.167,73Z" style="fill:#ecd6b2"/><path d="M34.5,26.285V60.111c0,1.582,13.205,4.582,29.5,4.582s29.5-3,29.5-4.582V26.285Z" style="fill:#1db6bc"/><path d="M64,64.693c16.29,0,29.5-3,29.5-4.582V26.285H64Z" style="fill:#17799b"/><path d="M68.628,73H59.372c4.326,0,7.833,6.417,7.833,14.333s-3.507,14.333-7.833,14.333h9.255c4.326,0,7.833-6.417,7.833-14.333S72.954,73,68.628,73Z" style="fill:#fd9e35"/><polygon points="58 117 54.887 112.674 47.774 117 53.774 101.663 64 101.663 58 117" style="fill:#fed33c"/><polygon points="70 117 73.113 112.674 80.226 117 74.226 101.663 64 101.663 70 117" style="fill:#fd9e35"/><polygon points="64 11 18.468 26.285 64 41.569 109.532 26.285 64 11" style="fill:#606de0"/><path d="M105.451,25.9a1.75,1.75,0,0,0-1.75,1.75V62.438a1.75,1.75,0,1,0,3.5,0V27.654A1.75,1.75,0,0,0,105.451,25.9Z" style="fill:#714437"/><polygon points="109.532 26.285 64 11 64 41.569 109.532 26.285" style="fill:#3647d7"/><polygon points="109.532 79.333 105.451 75.754 101.37 79.333 101.37 62.438 109.532 62.438 109.532 79.333" style="fill:#fd9e35"/></svg>