<svg id="Layer_1" data-name="Layer 1" xmlns="http://www.w3.org/2000/svg" viewBox="0 0 128 128"><title>IDEA</title><path d="M88.314,57.061A24.317,24.317,0,1,0,43.032,69.37a42.62,42.62,0,0,1,6.12,21.6v5.6h29.7V90.962a40.506,40.506,0,0,1,5.889-21.209A24.178,24.178,0,0,0,88.314,57.061Z" style="fill:#fed33c"/><path d="M64,9.25A1.75,1.75,0,0,0,62.25,11V23.669a1.75,1.75,0,0,0,3.5,0V11A1.75,1.75,0,0,0,64,9.25Z" style="fill:#fd9e35"/><path d="M110.061,55.311H97.392a1.75,1.75,0,0,0,0,3.5h12.668a1.75,1.75,0,0,0,0-3.5Z" style="fill:#fd9e35"/><path d="M88.849,79.435a1.75,1.75,0,0,0-2.475,2.475l4.479,4.479a1.75,1.75,0,0,0,2.475-2.475Z" style="fill:#fd9e35"/><path d="M90.854,27.732l-4.479,4.479a1.75,1.75,0,1,0,2.475,2.475l4.479-4.479a1.75,1.75,0,0,0-2.475-2.475Z" style="fill:#fd9e35"/><path d="M37.146,27.732a1.75,1.75,0,0,0-2.475,2.475l4.479,4.479a1.75,1.75,0,0,0,2.475-2.475Z" style="fill:#fd9e35"/><path d="M39.151,79.435l-4.479,4.479a1.75,1.75,0,1,0,2.475,2.475l4.479-4.479a1.75,1.75,0,0,0-2.475-2.475Z" style="fill:#fd9e35"/><path d="M30.608,55.311H17.939a1.75,1.75,0,1,0,0,3.5H30.608a1.75,1.75,0,1,0,0-3.5Z" style="fill:#fd9e35"/><path d="M78.848,101.816h-29.7a1.75,1.75,0,0,0,0,3.5h29.7a1.75,1.75,0,0,0,0-3.5Z" style="fill:#606de0"/><path d="M78.848,107.776h-29.7a1.75,1.75,0,0,0,0,3.5h29.7a1.75,1.75,0,0,0,0-3.5Z" style="fill:#1db6bc"/><path d="M60.263,109.527h7.473a0,0,0,0,1,0,0v3.848A3.625,3.625,0,0,1,64.112,117h-.223a3.625,3.625,0,0,1-3.625-3.625v-3.848A0,0,0,0,1,60.263,109.527Z" style="fill:#1db6bc"/><path d="M64,40.318h0A4.737,4.737,0,0,1,68.73,45.3L67.151,75.241A3.155,3.155,0,0,1,64,78.23h0a3.155,3.155,0,0,1-3.151-2.989L59.27,45.3A4.737,4.737,0,0,1,64,40.318Z" style="fill:#fc445e"/><rect x="60.889" y="83.277" width="6.223" height="6.223" rx="3.111" ry="3.111" transform="translate(128 172.776) rotate(-180)" style="fill:#fc445e"/><path d="M64,32.748V96.57H78.848V90.962a40.506,40.506,0,0,1,5.889-21.209A24.313,24.313,0,0,0,64,32.748Z" style="fill:#fd9e35"/><path d="M67.151,75.241,68.73,45.3A4.737,4.737,0,0,0,64,40.318V78.23A3.155,3.155,0,0,0,67.151,75.241Z" style="fill:#b20944"/><path d="M67.111,86.388A3.121,3.121,0,0,0,64,83.277V89.5A3.121,3.121,0,0,0,67.111,86.388Z" style="fill:#b20944"/><path d="M64,117h.112a3.625,3.625,0,0,0,3.625-3.625v-3.848H64Z" style="fill:#17799b"/><path d="M78.848,101.816H64v3.5H78.848a1.75,1.75,0,0,0,0-3.5Z" style="fill:#3647d7"/><path d="M78.848,107.777H64v3.5H78.848a1.75,1.75,0,0,0,0-3.5Z" style="fill:#17799b"/></svg>