<svg id="Layer_1" data-name="Layer 1" xmlns="http://www.w3.org/2000/svg" viewBox="0 0 128 128"><title>KNOWLEDGE</title><path d="M111.5,83.2v19.19H29.48a9.6,9.6,0,1,1,0-19.19Z" style="fill:#f7ecda"/><rect x="64" y="83.2" width="47.5" height="19.19" style="fill:#ecd6b2"/><path d="M64,41.729a1.751,1.751,0,0,1-1.741-1.595c-.018-.2-1.547-19.788,16.122-25.009a1.75,1.75,0,0,1,.992,3.357C64.418,22.9,65.728,39.655,65.743,39.823a1.751,1.751,0,0,1-1.588,1.9C64.1,41.727,64.05,41.729,64,41.729Z" style="fill:#9f5f4d"/><path d="M29.481,83.2H117V74.4H29.4A18.4,18.4,0,0,0,11,92.8h0a18.4,18.4,0,0,0,18.4,18.4H117v-8.8H29.481a9.6,9.6,0,0,1,0-19.193Z" style="fill:#606de0"/><path d="M111.5,87.97v3.5H41.22a1.75,1.75,0,0,1,0-3.5Z" style="fill:#9f5f4d"/><path d="M111.5,94.12v3.5H41.22a1.75,1.75,0,0,1,0-3.5Z" style="fill:#9f5f4d"/><polygon points="111.5 105.052 104.86 97.388 98.219 105.052 98.219 89.724 111.5 89.724 111.5 105.052" style="fill:#fd9e35"/><path d="M57.486,27.936A5.61,5.61,0,0,0,65.419,20c-2.191-2.191-10.578-2.644-10.578-2.644S55.295,25.745,57.486,27.936Z" style="fill:#1db6bc"/><path d="M81.6,38.729c-7.124-7-17.6,1.25-17.6,1.25s-10.479-8.25-17.6-1.25.007,27,7.541,33,10.062,0,10.062,0,2.528,6,10.062,0S88.727,45.729,81.6,38.729Z" style="fill:#fc445e"/><path d="M49.624,49.179a1.75,1.75,0,0,1-1.747-1.672,6.786,6.786,0,0,1,1.785-5.275,7.61,7.61,0,0,1,5.22-2.053,1.75,1.75,0,0,1-.039,3.5h-.029a4.113,4.113,0,0,0-2.665,1.015,3.432,3.432,0,0,0-.776,2.657,1.75,1.75,0,0,1-1.67,1.826Z" style="fill:#f7ecda"/><path d="M74.062,71.729c7.534-6,14.664-26,7.541-33S64,39.979,64,39.979v31.75S66.528,77.729,74.062,71.729Z" style="fill:#b20944"/><rect x="64" y="102.393" width="53" height="8.804" style="fill:#3647d7"/><rect x="64" y="74.396" width="53" height="8.804" style="fill:#3647d7"/></svg>