<svg id="Layer_1" data-name="Layer 1" xmlns="http://www.w3.org/2000/svg" viewBox="0 0 128 128"><title>LAPTOP</title><path d="M64,80.583a1.75,1.75,0,0,0-1.75,1.75V88a1.75,1.75,0,0,0,3.5,0V82.333A1.75,1.75,0,0,0,64,80.583Z" style="fill:#fd9e35"/><path d="M26.275,11h74.881a7.945,7.945,0,0,1,7.945,7.945V65.417a0,0,0,0,1,0,0H18.33a0,0,0,0,1,0,0V18.945A7.945,7.945,0,0,1,26.275,11Z" style="fill:#f7ecda"/><path d="M11.284,65.417H116.716a0,0,0,0,1,0,0v0a9.045,9.045,0,0,1-9.045,9.045H20.329a9.045,9.045,0,0,1-9.045-9.045v0a0,0,0,0,1,0,0Z" style="fill:#f7ecda"/><path d="M27.212,17.862h73.007a2.1,2.1,0,0,1,2.1,2.1v45.45a0,0,0,0,1,0,0H25.107a0,0,0,0,1,0,0V19.967A2.1,2.1,0,0,1,27.212,17.862Z" style="fill:#1db6bc"/><path d="M40.676,74.462H87.324a0,0,0,0,1,0,0v0a7.871,7.871,0,0,1-7.871,7.871h-30.9a7.871,7.871,0,0,1-7.871-7.871v0a0,0,0,0,1,0,0Z" style="fill:#606de0"/><rect x="59.5" y="88" width="9" height="29" style="fill:#606de0"/><path d="M101.156,11H63.716V65.417H109.1V18.945A7.945,7.945,0,0,0,101.156,11Z" style="fill:#ecd6b2"/><path d="M63.716,74.462h43.955a9.045,9.045,0,0,0,9.045-9.045h-53Z" style="fill:#ecd6b2"/><path d="M63.716,82.333H79.452a7.871,7.871,0,0,0,7.871-7.871H63.716Z" style="fill:#3647d7"/><rect x="63.716" y="88" width="4.784" height="29" style="fill:#3647d7"/><path d="M100.219,17.862h-36.5V65.417h38.608V19.967A2.1,2.1,0,0,0,100.219,17.862Z" style="fill:#17799b"/><path d="M67.716,68.189h-8a1.75,1.75,0,0,0,0,3.5h8a1.75,1.75,0,0,0,0-3.5Z" style="fill:#714437"/><polygon points="35.136 65.418 29.745 65.418 44.176 17.862 49.567 17.862 35.136 65.418" style="fill:#fff"/><polygon points="39.94 65.418 37.245 65.418 51.676 17.862 54.372 17.862 39.94 65.418" style="fill:#fff"/><polygon points="69.66 65.418 64.269 65.418 78.7 17.862 84.091 17.862 69.66 65.418" style="fill:#1db6bc"/><polygon points="74.464 65.418 71.769 65.418 86.2 17.862 88.896 17.862 74.464 65.418" style="fill:#1db6bc"/></svg>