<svg id="Layer_1" data-name="Layer 1" xmlns="http://www.w3.org/2000/svg" viewBox="0 0 128 128"><title>LIBRARY</title><path d="M111.5,86.98v19.19H29.48a9.6,9.6,0,1,1,0-19.19Z" style="fill:#f7ecda"/><rect x="64" y="86.98" width="47.5" height="19.19" style="fill:#ecd6b2"/><polygon points="110.347 43.195 17.653 43.195 26.398 16.961 101.602 16.961 110.347 43.195" style="fill:#fc445e"/><polygon points="85.716 43.195 64 13.026 42.284 43.195 25.523 43.195 25.523 78.174 102.477 78.174 102.477 43.195 85.716 43.195" style="fill:#fed33c"/><polygon points="64 43.195 110.347 43.195 101.602 16.961 64 16.961 64 43.195" style="fill:#b20944"/><polygon points="102.477 78.174 102.477 43.195 85.716 43.195 64 13.026 64 78.174 102.477 78.174" style="fill:#fd9e35"/><path d="M29.481,86.977H117v-8.8H29.4A18.4,18.4,0,0,0,11,96.574h0a18.4,18.4,0,0,0,18.4,18.4H117v-8.8H29.481a9.6,9.6,0,1,1,0-19.193Z" style="fill:#1db6bc"/><path d="M111.5,91.75v3.5H41.22a1.75,1.75,0,0,1,0-3.5Z" style="fill:#9f5f4d"/><path d="M111.5,97.9v3.5H41.22a1.75,1.75,0,0,1,0-3.5Z" style="fill:#9f5f4d"/><polygon points="54.5 114.974 47.86 107.31 41.219 114.974 41.219 99.646 54.5 99.646 54.5 114.974" style="fill:#fc445e"/><path d="M64,54.782h0a9.073,9.073,0,0,1,9.073,9.073V78.174a0,0,0,0,1,0,0H54.927a0,0,0,0,1,0,0V63.854A9.073,9.073,0,0,1,64,54.782Z" style="fill:#606de0"/><circle cx="64" cy="37.584" r="5.465" style="fill:#f7ecda"/><path d="M40.289,51.284h0a3.771,3.771,0,0,1,3.771,3.771v3.771a0,0,0,0,1,0,0H36.518a0,0,0,0,1,0,0V55.055a3.771,3.771,0,0,1,3.771-3.771Z" style="fill:#f7ecda"/><path d="M40.289,64.291h0a3.771,3.771,0,0,1,3.771,3.771v3.771a0,0,0,0,1,0,0H36.518a0,0,0,0,1,0,0V68.062A3.771,3.771,0,0,1,40.289,64.291Z" style="fill:#f7ecda"/><path d="M87.711,51.284h0a3.771,3.771,0,0,1,3.771,3.771v3.771a0,0,0,0,1,0,0H83.94a0,0,0,0,1,0,0V55.055a3.771,3.771,0,0,1,3.771-3.771Z" style="fill:#ecd6b2"/><path d="M87.711,64.291h0a3.771,3.771,0,0,1,3.771,3.771v3.771a0,0,0,0,1,0,0H83.94a0,0,0,0,1,0,0V68.062A3.771,3.771,0,0,1,87.711,64.291Z" style="fill:#ecd6b2"/><path d="M73.073,78.174V63.854A9.073,9.073,0,0,0,64,54.781V78.174Z" style="fill:#3647d7"/><path d="M69.465,37.584A5.465,5.465,0,0,0,64,32.118V43.049A5.465,5.465,0,0,0,69.465,37.584Z" style="fill:#ecd6b2"/><rect x="64" y="106.17" width="53" height="8.804" style="fill:#17799b"/><rect x="64" y="78.174" width="53" height="8.804" style="fill:#17799b"/></svg>