<svg id="Layer_1" data-name="Layer 1" xmlns="http://www.w3.org/2000/svg" viewBox="0 0 128 128"><title>LIGHT BULB</title><path d="M88.11,74.12A24.343,24.343,0,0,1,66.77,95.1a25.979,25.979,0,0,1-2.77.15,24.657,24.657,0,0,1-4.74-.46,24.323,24.323,0,0,1-16-36.54,40.527,40.527,0,0,0,5.89-21.21V31.43h29.7v5.6a42.624,42.624,0,0,0,6.12,21.6A24.3,24.3,0,0,1,88.11,74.12Z" style="fill:#fed33c"/><path d="M88.11,74.12A24.343,24.343,0,0,1,66.77,95.1a25.979,25.979,0,0,1-2.77.15V31.43H78.85v5.6a42.624,42.624,0,0,0,6.12,21.6A24.3,24.3,0,0,1,88.11,74.12Z" style="fill:#fd9e35"/><path d="M60.263,11h7.473a0,0,0,0,1,0,0v3.848a3.625,3.625,0,0,1-3.625,3.625h-.223a3.625,3.625,0,0,1-3.625-3.625V11A0,0,0,0,1,60.263,11Z" transform="translate(128 29.473) rotate(180)" style="fill:#714437"/><path d="M64,102.581a1.75,1.75,0,0,0-1.75,1.75V117a1.75,1.75,0,0,0,3.5,0V104.331A1.75,1.75,0,0,0,64,102.581Z" style="fill:#fd9e35"/><path d="M30.608,69.189H17.939a1.75,1.75,0,0,0,0,3.5H30.608a1.75,1.75,0,1,0,0-3.5Z" style="fill:#fd9e35"/><path d="M37.146,41.611a1.75,1.75,0,0,0-2.475,2.475l4.479,4.479a1.75,1.75,0,0,0,2.475-2.475Z" style="fill:#fd9e35"/><path d="M39.151,93.313l-4.479,4.479a1.75,1.75,0,1,0,2.475,2.475l4.479-4.479a1.75,1.75,0,0,0-2.475-2.475Z" style="fill:#fd9e35"/><path d="M88.849,93.313a1.75,1.75,0,0,0-2.475,2.475l4.479,4.479a1.75,1.75,0,0,0,2.475-2.475Z" style="fill:#fd9e35"/><path d="M90.854,41.611,86.375,46.09a1.75,1.75,0,1,0,2.475,2.475l4.479-4.479a1.75,1.75,0,0,0-2.475-2.475Z" style="fill:#fd9e35"/><path d="M110.061,69.189H97.392a1.75,1.75,0,1,0,0,3.5h12.668a1.75,1.75,0,1,0,0-3.5Z" style="fill:#fd9e35"/><path d="M78.848,22.684h-29.7a1.75,1.75,0,0,0,0,3.5h29.7a1.75,1.75,0,0,0,0-3.5Z" style="fill:#606de0"/><path d="M78.848,16.723h-29.7a1.75,1.75,0,0,0,0,3.5h29.7a1.75,1.75,0,0,0,0-3.5Z" style="fill:#9f5f4d"/><path d="M69.49,31.43V74.22a1.75,1.75,0,0,1-3.5,0V31.43Z" style="fill:#fed33c"/><path d="M62.01,31.43V74.22a1.75,1.75,0,0,1-3.5,0V31.43Z" style="fill:#fd9e35"/><path d="M78.848,16.723H64v3.5H78.848a1.75,1.75,0,0,0,0-3.5Z" style="fill:#714437"/><path d="M78.848,22.684H64v3.5H78.848a1.75,1.75,0,0,0,0-3.5Z" style="fill:#3647d7"/></svg>