<svg id="Layer_1" data-name="Layer 1" xmlns="http://www.w3.org/2000/svg" viewBox="0 0 128 128"><title>MATHEMATICS</title><rect x="31.932" y="11" width="71.333" height="99.044" style="fill:#606de0"/><rect x="67.599" y="11" width="35.667" height="99.044" style="fill:#3647d7"/><rect x="24.734" y="17.956" width="71.333" height="99.044" style="fill:#f7ecda"/><rect x="60.422" y="17.956" width="35.646" height="99.044" style="fill:#ecd6b2"/><rect x="31.932" y="25.194" width="56.937" height="15.512" style="fill:#606de0"/><rect x="31.932" y="51.206" width="23.575" height="23.575" style="fill:#fc445e"/><rect x="65.294" y="51.206" width="23.575" height="23.575" style="fill:#fd9e35"/><rect x="31.932" y="85.28" width="23.575" height="23.575" style="fill:#1db6bc"/><rect x="65.294" y="85.28" width="23.575" height="23.575" style="fill:#3647d7"/><path d="M49.776,61.243H45.47V56.937a1.75,1.75,0,0,0-3.5,0v4.307H37.664a1.75,1.75,0,0,0,0,3.5H41.97v4.306a1.75,1.75,0,0,0,3.5,0V64.743h4.306a1.75,1.75,0,0,0,0-3.5Z" style="fill:#f7ecda"/><path d="M43.72,92.76a1.831,1.831,0,0,0,.34-.03,1.558,1.558,0,0,0,.33-.1,1.744,1.744,0,0,0,.95-.95,1.7,1.7,0,0,0,.13-.67,1.949,1.949,0,0,0-.03-.34c-.03-.11-.06-.22-.1-.33a2.275,2.275,0,0,0-.17-.3,1.382,1.382,0,0,0-.21-.271,1.822,1.822,0,0,0-2.48,0,1.364,1.364,0,0,0-.21.271,2.28,2.28,0,0,0-.17.3c-.04.11-.07.22-.1.33a1.95,1.95,0,0,0-.03.34,1.7,1.7,0,0,0,.13.67,1.966,1.966,0,0,0,.38.57A1.738,1.738,0,0,0,43.72,92.76Z" style="fill:#f7ecda"/><path d="M45.34,102.45a2.285,2.285,0,0,0-.17-.3,1.717,1.717,0,0,0-.21-.26,1.753,1.753,0,0,0-1.58-.479,1.372,1.372,0,0,0-.33.1,1.072,1.072,0,0,0-.3.16,1.421,1.421,0,0,0-.27.22,2.737,2.737,0,0,0-.22.26c-.06.1-.11.2-.16.3s-.07.22-.1.33a2.028,2.028,0,0,0-.03.34,1.75,1.75,0,1,0,3.5,0,2.026,2.026,0,0,0-.03-.34C45.41,102.67,45.38,102.56,45.34,102.45Z" style="fill:#f7ecda"/><path d="M49.776,95.317H37.664a1.75,1.75,0,0,0,0,3.5H49.776a1.75,1.75,0,0,0,0-3.5Z" style="fill:#f7ecda"/><path d="M83.138,95.317H71.025a1.75,1.75,0,0,0,0,3.5H83.138a1.75,1.75,0,0,0,0-3.5Z" style="fill:#ecd6b2"/><path d="M71.562,68.513a1.749,1.749,0,0,0,2.475,0l3.045-3.045,3.045,3.045A1.75,1.75,0,0,0,82.6,66.038l-3.045-3.045L82.6,59.948a1.75,1.75,0,0,0-2.475-2.475l-3.045,3.045-3.045-3.045a1.75,1.75,0,0,0-2.475,2.475l3.045,3.045-3.045,3.045A1.749,1.749,0,0,0,71.562,68.513Z" style="fill:#ecd6b2"/><rect x="60.422" y="25.194" width="28.447" height="15.512" style="fill:#3647d7"/></svg>