<svg id="Layer_1" data-name="Layer 1" xmlns="http://www.w3.org/2000/svg" viewBox="0 0 128 128"><title>MICROSCOPE</title><rect x="55.955" y="96.744" width="16.091" height="8.729" style="fill:#1db6bc"/><rect x="64" y="98.494" width="8.841" height="6.979" style="fill:#17799b"/><path d="M80.667,98.494H48.4A15.6,15.6,0,0,1,32.813,82.91a1.75,1.75,0,0,1,3.5,0A12.1,12.1,0,0,0,48.4,94.994H80.667A12.1,12.1,0,0,0,92.75,82.91V65.654a12.15,12.15,0,0,0-3.671-8.674L71.622,40.05a1.75,1.75,0,0,1,2.438-2.513L91.517,54.468A15.673,15.673,0,0,1,96.25,65.654V82.91A15.6,15.6,0,0,1,80.667,98.494Z" style="fill:#9f5f4d"/><path d="M74.06,37.537a1.75,1.75,0,0,0-2.437,2.513L89.079,56.98a12.15,12.15,0,0,1,3.671,8.674V82.91A12.1,12.1,0,0,1,80.667,94.994H64v3.5H80.667A15.6,15.6,0,0,0,96.25,82.91V65.654a15.673,15.673,0,0,0-4.733-11.187Z" style="fill:#714437"/><rect x="25.625" y="105.473" width="76.75" height="7.284" style="fill:#606de0"/><polygon points="62.729 73.138 39.925 50.334 50.867 46.462 66.601 62.195 62.729 73.138" style="fill:#fed33c"/><rect x="85.784" y="17.153" width="9.75" height="10.5" transform="translate(42.395 -57.544) rotate(45)" style="fill:#fed33c"/><rect x="61.716" y="20.272" width="22.25" height="39.899" transform="translate(49.776 -39.725) rotate(45)" style="fill:#1db6bc"/><rect x="19.458" y="75.627" width="30.209" height="7.284" style="fill:#606de0"/><path d="M117,111.006H11a1.75,1.75,0,0,0,0,3.5H117a1.75,1.75,0,0,0,0-3.5Z" style="fill:#3647d7"/><rect x="64" y="105.473" width="38.375" height="7.284" style="fill:#3647d7"/><polygon points="58.409 54.004 66.601 62.195 94.814 33.982 86.756 25.924 58.409 54.004" style="fill:#17799b"/><polygon points="90.394 29.563 97.819 22.138 94.215 18.534 86.756 25.924 90.394 29.563" style="fill:#fd9e35"/><polygon points="62.729 73.138 66.601 62.195 58.409 54.004 50.967 61.376 62.729 73.138" style="fill:#fd9e35"/><rect x="34.563" y="75.627" width="15.104" height="7.284" style="fill:#3647d7"/></svg>