<svg id="Layer_1" data-name="Layer 1" xmlns="http://www.w3.org/2000/svg" viewBox="0 0 128 128"><title>MORTARBOARD</title><path d="M29.667,42.021V81.4c0,1.841,15.372,5.333,34.333,5.333S98.333,83.237,98.333,81.4V42.021Z" style="fill:#1db6bc"/><polygon points="64 24.229 11 42.021 64 59.813 117 42.021 64 24.229" style="fill:#606de0"/><path d="M112.25,41.865a1.75,1.75,0,0,0-1.75,1.75V84.1a1.75,1.75,0,1,0,3.5,0V43.615A1.75,1.75,0,0,0,112.25,41.865Z" style="fill:#714437"/><path d="M63.716,86.727l.284,0c18.962,0,34.333-3.492,34.333-5.333V42.021H63.716Z" style="fill:#17799b"/><polygon points="63.716 24.325 63.716 59.717 64 59.813 117 42.021 64 24.229 63.716 24.325" style="fill:#3647d7"/><polygon points="117 103.771 112.25 99.604 107.5 103.771 107.5 84.104 117 84.104 117 103.771" style="fill:#fd9e35"/></svg>