<svg id="Layer_1" data-name="Layer 1" xmlns="http://www.w3.org/2000/svg" viewBox="0 0 128 128"><title>MUSIC</title><path d="M31.935,30.439a1.75,1.75,0,0,0-1.75,1.75V58.1a1.75,1.75,0,0,0,3.5,0V32.189A1.75,1.75,0,0,0,31.935,30.439Z" style="fill:#fd9e35"/><path d="M117,67.953a1.75,1.75,0,0,0-1.75,1.75v32.136a1.75,1.75,0,0,0,3.5,0V69.7A1.75,1.75,0,0,0,117,67.953Z" style="fill:#3647d7"/><path d="M53.5,53.37a1.75,1.75,0,0,0-1.75,1.75V87.536a1.75,1.75,0,0,0,3.5,0V55.12A1.75,1.75,0,0,0,53.5,53.37Z" style="fill:#b20944"/><path d="M92.109,47.453a1.75,1.75,0,0,0-1.75,1.75V81.62a1.75,1.75,0,0,0,3.5,0V49.2A1.75,1.75,0,0,0,92.109,47.453Z" style="fill:#b20944"/><polygon points="93.859 52.255 51.75 58.844 51.75 42.06 93.514 35.525 93.859 52.255" style="fill:#fc445e"/><ellipse cx="42.154" cy="87.536" rx="13.096" ry="11.833" style="fill:#fc445e"/><ellipse cx="80.764" cy="81.62" rx="13.096" ry="11.833" style="fill:#b20944"/><polygon points="51.916 30.118 30.185 35.37 30.185 21.955 51.916 16.703 51.916 30.118" style="fill:#fed33c"/><ellipse cx="23.217" cy="58.099" rx="10.467" ry="9.458" style="fill:#fed33c"/><ellipse cx="108.283" cy="101.839" rx="10.467" ry="9.458" style="fill:#606de0"/><polygon points="67.668 56.353 93.859 52.255 93.514 35.525 67.668 39.569 67.668 56.353" style="fill:#b20944"/></svg>