<svg id="Layer_1" data-name="Layer 1" xmlns="http://www.w3.org/2000/svg" viewBox="0 0 128 128"><title>NOTES</title><rect x="28.835" y="39.824" width="77.176" height="77.176" style="fill:#606de0"/><rect x="67.423" y="39.824" width="38.588" height="77.176" style="fill:#3647d7"/><rect x="21.989" y="18.213" width="73.227" height="14.534" style="fill:#fc445e"/><rect x="58.603" y="18.213" width="36.614" height="14.534" style="fill:#b20944"/><rect x="21.989" y="32.748" width="73.227" height="73.227" style="fill:#fed33c"/><rect x="58.603" y="32.748" width="36.614" height="73.227" style="fill:#fd9e35"/><path d="M37.716,23.677c-1.014,0-2.487-2.128-2.487-5.463S36.7,12.75,37.716,12.75,40.2,14.879,40.2,18.213h3.5c0-5.026-2.63-8.963-5.986-8.963s-5.987,3.938-5.987,8.964,2.63,8.963,5.987,8.963a1.75,1.75,0,0,0,0-3.5Z" style="fill:#f7ecda"/><path d="M52.75,23.677c-1.014,0-2.487-2.128-2.487-5.463s1.474-5.464,2.487-5.464,2.486,2.129,2.486,5.463h3.5c0-5.026-2.63-8.963-5.986-8.963s-5.987,3.938-5.987,8.964,2.63,8.963,5.987,8.963a1.75,1.75,0,0,0,0-3.5Z" style="fill:#f7ecda"/><path d="M67.785,23.677c-1.014,0-2.487-2.128-2.487-5.463s1.474-5.464,2.487-5.464,2.486,2.129,2.486,5.463h3.5c0-5.026-2.63-8.963-5.986-8.963S61.8,13.188,61.8,18.214s2.63,8.963,5.987,8.963a1.75,1.75,0,0,0,0-3.5Z" style="fill:#ecd6b2"/><path d="M82.82,23.677c-1.014,0-2.487-2.128-2.487-5.463s1.474-5.464,2.487-5.464,2.486,2.129,2.486,5.463h3.5c0-5.026-2.63-8.963-5.986-8.963s-5.987,3.938-5.987,8.964,2.63,8.963,5.987,8.963a1.75,1.75,0,0,0,0-3.5Z" style="fill:#ecd6b2"/><path d="M36.051,51.313h45.1a1.75,1.75,0,0,0,0-3.5h-45.1a1.75,1.75,0,0,0,0,3.5Z" style="fill:#f7ecda"/><path d="M81.154,60.124h-45.1a1.75,1.75,0,0,0,0,3.5h45.1a1.75,1.75,0,0,0,0-3.5Z" style="fill:#f7ecda"/><path d="M81.154,72.436h-45.1a1.75,1.75,0,0,0,0,3.5h45.1a1.75,1.75,0,0,0,0-3.5Z" style="fill:#f7ecda"/><path d="M81.154,84.747h-45.1a1.75,1.75,0,0,0,0,3.5h45.1a1.75,1.75,0,0,0,0-3.5Z" style="fill:#f7ecda"/></svg>