<svg id="Layer_1" data-name="Layer 1" xmlns="http://www.w3.org/2000/svg" viewBox="0 0 128 128"><title>OPEN BOOK</title><rect x="11" y="27.041" width="53" height="77.132" style="fill:#1db6bc"/><rect x="64" y="27.041" width="53" height="77.132" style="fill:#17799b"/><path d="M64,98.177a95.241,95.241,0,0,0-44,0V27.041s22-7.233,44,0Z" style="fill:#f7ecda"/><path d="M64,98.177a95.241,95.241,0,0,1,44,0V27.041s-22-7.233-44,0Z" style="fill:#ecd6b2"/><path d="M56,44.141a1.749,1.749,0,0,1-.547-.088c-13.3-4.373-26.772-.044-26.907,0a1.75,1.75,0,1,1-1.093-3.325c.593-.2,14.712-4.728,29.093,0A1.75,1.75,0,0,1,56,44.141Z" style="fill:#9f5f4d"/><path d="M56,56.882a1.749,1.749,0,0,1-.547-.088c-13.3-4.373-26.772-.044-26.907,0a1.75,1.75,0,1,1-1.093-3.325c.593-.2,14.712-4.728,29.093,0A1.75,1.75,0,0,1,56,56.882Z" style="fill:#9f5f4d"/><path d="M56,69.623a1.749,1.749,0,0,1-.547-.088c-13.3-4.373-26.772-.044-26.907,0a1.75,1.75,0,1,1-1.093-3.325c.593-.2,14.712-4.728,29.093,0A1.75,1.75,0,0,1,56,69.623Z" style="fill:#9f5f4d"/><path d="M56,82.363a1.749,1.749,0,0,1-.547-.088c-13.3-4.373-26.772-.044-26.907,0a1.75,1.75,0,0,1-1.093-3.325c.593-.2,14.712-4.728,29.093,0A1.75,1.75,0,0,1,56,82.363Z" style="fill:#9f5f4d"/><path d="M72,44.141a1.751,1.751,0,0,1-.547-3.413c14.384-4.727,28.5-.195,29.094,0a1.75,1.75,0,0,1-1.092,3.326c-.135-.044-13.647-4.359-26.908,0A1.754,1.754,0,0,1,72,44.141Z" style="fill:#714437"/><path d="M72,56.882a1.751,1.751,0,0,1-.547-3.413c14.384-4.727,28.5-.2,29.094,0a1.75,1.75,0,0,1-1.092,3.326c-.135-.044-13.647-4.36-26.908,0A1.754,1.754,0,0,1,72,56.882Z" style="fill:#714437"/><path d="M72,69.623a1.751,1.751,0,0,1-.547-3.413c14.384-4.727,28.5-.194,29.094,0a1.75,1.75,0,0,1-1.092,3.326c-.135-.044-13.647-4.36-26.908,0A1.754,1.754,0,0,1,72,69.623Z" style="fill:#714437"/><path d="M72,82.363a1.751,1.751,0,0,1-.547-3.413c14.384-4.727,28.5-.2,29.094,0a1.75,1.75,0,0,1-1.092,3.326c-.135-.044-13.647-4.36-26.908,0A1.754,1.754,0,0,1,72,82.363Z" style="fill:#714437"/></svg>