<svg id="Layer_1" data-name="Layer 1" xmlns="http://www.w3.org/2000/svg" viewBox="0 0 128 128"><title>OWL</title><polygon points="50.641 58.477 35.861 58.477 35.861 12.234 50.641 58.477" style="fill:#1db6bc"/><polygon points="77.359 58.477 92.139 58.477 92.139 12.234 77.359 58.477" style="fill:#17799b"/><path d="M92.139,110.638,64,115.766l-28.139-5.128v-61.1A26.745,26.745,0,0,1,62.606,22.791h2.787A26.745,26.745,0,0,1,92.139,49.536Z" style="fill:#fc445e"/><path d="M65.394,22.791H64v92.975l28.139-5.128v-61.1A26.745,26.745,0,0,0,65.394,22.791Z" style="fill:#b20944"/><path d="M63.836,76.008,64,63.023,35.861,51.667,11,107.6C47.616,110.061,63.836,76.008,63.836,76.008Z" style="fill:#fed33c"/><path d="M64.164,76.008,64,63.023,92.139,51.667,117,107.6C80.384,110.061,64.164,76.008,64.164,76.008Z" style="fill:#fd9e35"/><path d="M64,53.862,58.108,65.308A26.341,26.341,0,0,0,64,75.818a26.341,26.341,0,0,0,5.892-10.51Z" style="fill:#606de0"/><circle cx="49.931" cy="53.862" r="14.069" style="fill:#f7ecda"/><circle cx="78.069" cy="53.862" r="14.069" style="fill:#ecd6b2"/><circle cx="49.931" cy="53.862" r="3" style="fill:#714437"/><circle cx="78.069" cy="53.862" r="3" style="fill:#714437"/><path d="M69.892,65.308,64,53.862V75.818A26.341,26.341,0,0,0,69.892,65.308Z" style="fill:#3647d7"/></svg>