<svg id="Layer_1" data-name="Layer 1" xmlns="http://www.w3.org/2000/svg" viewBox="0 0 128 128"><title>PERSONAL COMPUTER</title><rect x="11" y="18.182" width="106" height="69.672" style="fill:#f7ecda"/><polygon points="77.667 103.752 50.333 103.752 54.333 87.854 73.667 87.854 77.667 103.752" style="fill:#606de0"/><path d="M48.691,103.752H79.309a6.066,6.066,0,0,1,6.066,6.066v0a0,0,0,0,1,0,0H42.625a0,0,0,0,1,0,0v0A6.066,6.066,0,0,1,48.691,103.752Z" style="fill:#9f5f4d"/><rect x="17.188" y="23.946" width="93.623" height="52.304" style="fill:#1db6bc"/><path d="M41.528,45.622a6.334,6.334,0,1,0-8.307,0,11.56,11.56,0,0,0-7.412,10.784H48.941A11.56,11.56,0,0,0,41.528,45.622Z" style="fill:#fed33c"/><rect x="64" y="18.182" width="53" height="69.672" style="fill:#ecd6b2"/><rect x="64" y="23.946" width="46.812" height="52.304" style="fill:#17799b"/><polygon points="64 103.752 77.667 103.752 73.667 87.854 64 87.854 64 103.752" style="fill:#3647d7"/><path d="M64,103.752v6.066H85.375a6.066,6.066,0,0,0-6.066-6.066Z" style="fill:#714437"/><path d="M60.441,39.242h41.75a1.75,1.75,0,1,0,0-3.5H60.441a1.75,1.75,0,0,0,0,3.5Z" style="fill:#f7ecda"/><path d="M102.191,44.794H60.441a1.75,1.75,0,0,0,0,3.5h41.75a1.75,1.75,0,0,0,0-3.5Z" style="fill:#f7ecda"/><path d="M102.191,53.845H60.441a1.75,1.75,0,0,0,0,3.5h41.75a1.75,1.75,0,0,0,0-3.5Z" style="fill:#f7ecda"/><path d="M102.191,62.9H25.809a1.75,1.75,0,0,0,0,3.5h76.382a1.75,1.75,0,0,0,0-3.5Z" style="fill:#f7ecda"/><path d="M48.941,56.406a11.56,11.56,0,0,0-7.412-10.784,6.328,6.328,0,0,0-4.153-11.108V56.406Z" style="fill:#fd9e35"/></svg>