<svg id="Layer_1" data-name="Layer 1" xmlns="http://www.w3.org/2000/svg" viewBox="0 0 128 128"><title>PHARMACY</title><path d="M57.133,34.733V27.708H20.372v7.025a13.42,13.42,0,0,1-4.686,10.189h0A13.42,13.42,0,0,0,11,55.111v49.222a7.743,7.743,0,0,0,7.743,7.743H58.762a7.743,7.743,0,0,0,7.743-7.743V55.111a13.42,13.42,0,0,0-4.686-10.189h0A13.42,13.42,0,0,1,57.133,34.733Z" style="fill:#f7ecda"/><rect x="11" y="57.862" width="55.505" height="38.672" style="fill:#fed33c"/><path d="M61.819,44.922h0a13.42,13.42,0,0,1-4.686-10.189V27.708H38.753v84.368H58.762a7.743,7.743,0,0,0,7.743-7.743V55.111A13.42,13.42,0,0,0,61.819,44.922Z" style="fill:#ecd6b2"/><rect x="38.753" y="57.862" width="27.753" height="38.672" style="fill:#fd9e35"/><rect x="16.27" y="15.92" width="44.96" height="11.79" style="fill:#fc445e"/><rect x="38.753" y="15.924" width="22.48" height="11.784" style="fill:#b20944"/><polygon points="50.868 73.796 42.49 73.796 42.49 65.418 35.015 65.418 35.015 73.796 26.637 73.796 26.637 81.271 35.015 81.271 35.015 89.649 42.49 89.649 42.49 81.271 50.868 81.271 50.868 73.796" style="fill:#fc445e"/><rect x="21.73" y="15.92" width="3.5" height="11.79" style="fill:#b20944"/><rect x="29.37" y="15.92" width="3.5" height="11.79" style="fill:#b20944"/><rect x="37" y="15.92" width="3.5" height="11.79" style="fill:#b20944"/><rect x="44.64" y="15.92" width="3.5" height="11.79" style="fill:#fc445e"/><rect x="52.28" y="15.92" width="3.5" height="11.79" style="fill:#fc445e"/><rect x="57.658" y="96.534" width="36.862" height="15.541" rx="7.536" ry="7.536" style="fill:#606de0"/><path d="M86.75,96.534H76.089v15.541H86.75a7.771,7.771,0,0,0,7.771-7.771h0A7.771,7.771,0,0,0,86.75,96.534Z" style="fill:#3647d7"/><rect x="83.174" y="89.083" width="36.862" height="15.541" rx="7.536" ry="7.536" transform="translate(96.637 -43.43) rotate(44.343)" style="fill:#1db6bc"/><path d="M114.661,98.748,107.037,91.3,96.174,102.411l7.624,7.451a7.771,7.771,0,0,0,10.989-.126h0A7.771,7.771,0,0,0,114.661,98.748Z" style="fill:#17799b"/><polygon points="42.49 65.418 38.753 65.418 38.753 89.649 42.49 89.649 42.49 81.271 50.868 81.271 50.868 73.796 42.49 73.796 42.49 65.418" style="fill:#b20944"/></svg>