<svg id="Layer_1" data-name="Layer 1" xmlns="http://www.w3.org/2000/svg" viewBox="0 0 128 128"><title>PHYSICS</title><path d="M89.414,11V74.823a25.414,25.414,0,1,1-50.829,0V11H23.062V76.063A40.937,40.937,0,0,0,64,117h0a40.937,40.937,0,0,0,40.937-40.937V11Z" style="fill:#fc445e"/><path d="M64,117a40.937,40.937,0,0,0,40.937-40.937V11H89.414V74.823A25.414,25.414,0,0,1,64,100.238V117Z" style="fill:#b20944"/><path d="M42.586,20.512h-4a1.75,1.75,0,0,1,0-3.5h4a1.75,1.75,0,0,1,0,3.5Z" style="fill:#fed33c"/><path d="M76.849,20.512H68.283a1.75,1.75,0,0,1,0-3.5h8.565a1.75,1.75,0,0,1,0,3.5Zm-17.131,0H51.152a1.75,1.75,0,0,1,0-3.5h8.565a1.75,1.75,0,0,1,0,3.5Z" style="fill:#fed33c"/><path d="M89.413,20.512h-4a1.75,1.75,0,0,1,0-3.5h4a1.75,1.75,0,0,1,0,3.5Z" style="fill:#fed33c"/><rect x="23.062" y="11" width="15.523" height="15.523" style="fill:#f7ecda"/><rect x="89.414" y="11" width="15.523" height="15.523" style="fill:#ecd6b2"/></svg>