<svg id="Layer_1" data-name="Layer 1" xmlns="http://www.w3.org/2000/svg" viewBox="0 0 128 128"><title>PRESENTATION</title><path d="M112.215,70.893a1.75,1.75,0,0,0-1.75,1.75V92.461a1.75,1.75,0,0,0,3.5,0V72.643A1.75,1.75,0,0,0,112.215,70.893Z" style="fill:#fd9e35"/><rect x="11" y="11" width="106" height="61.643" style="fill:#1db6bc"/><rect x="64" y="11" width="53" height="61.643" style="fill:#17799b"/><circle cx="105.008" cy="70.98" r="5.73" style="fill:#ecd6b2"/><path d="M108.42,75.99,95.49,98.39a13.329,13.329,0,0,1-18.21,4.88l-4.9-2.64L72.53,117H12.02v-8.73A32.2,32.2,0,0,1,27.78,80.56a32.871,32.871,0,0,1,6.23-2.86h.01a32.219,32.219,0,0,1,10.21-1.65H48.4c3.72,0,11.2.9,11.2.9l.37.23,5.07,3.22L83.12,91.85a3.178,3.178,0,0,0,4.46-1.1l11.6-20.09Z" style="fill:#606de0"/><path d="M87.58,90.75a3.178,3.178,0,0,1-4.46,1.1L65.04,80.4l-5.07-3.22-.37-.23s-7.48-.9-11.2-.9H46.31V117H72.53l-.15-16.37,4.9,2.64a13.329,13.329,0,0,0,18.21-4.88l12.93-22.4-9.24-5.33Z" style="fill:#3647d7"/><path d="M112.215,103.781a6.535,6.535,0,1,1,6.535-6.535A6.542,6.542,0,0,1,112.215,103.781Zm0-9.57a3.035,3.035,0,1,0,3.035,3.035A3.038,3.038,0,0,0,112.215,94.211Z" style="fill:#fed33c"/><path d="M102.977,25.789a1.75,1.75,0,0,0-1.75-1.75H64a1.75,1.75,0,0,0,0,3.5h37.227A1.75,1.75,0,0,0,102.977,25.789Z" style="fill:#1db6bc"/><path d="M101.227,32.329H69.287a1.75,1.75,0,0,0,0,3.5h31.939a1.75,1.75,0,0,0,0-3.5Z" style="fill:#1db6bc"/><path d="M101.227,40.619H72.333a1.75,1.75,0,0,0,0,3.5h28.894a1.75,1.75,0,0,0,0-3.5Z" style="fill:#1db6bc"/><path d="M101.227,48.908H77.333a1.75,1.75,0,0,0,0,3.5h23.894a1.75,1.75,0,0,0,0-3.5Z" style="fill:#1db6bc"/><path d="M101.227,57.2H79.5a1.75,1.75,0,0,0,0,3.5h21.727a1.75,1.75,0,0,0,0-3.5Z" style="fill:#1db6bc"/><path d="M46.32,82.43v.01l-7.35,7.78L27.78,80.56a32.871,32.871,0,0,1,6.23-2.86h.01l12.29,4.73Z" style="fill:#fc445e"/><polygon points="65.04 80.4 53.66 90.22 46.32 82.44 46.31 82.43 46.32 82.43 59.97 77.18 65.04 80.4" style="fill:#b20944"/><path d="M20.967,58.388a6.079,6.079,0,0,0,6.079,6.079V52.309A6.079,6.079,0,0,0,20.967,58.388Z" style="fill:#ecd6b2"/><path d="M71.665,58.388a6.079,6.079,0,0,1-6.079,6.079V52.309A6.079,6.079,0,0,1,71.665,58.388Z" style="fill:#ecd6b2"/><path d="M25.09,102.71V117h-3.5V102.71a1.75,1.75,0,0,1,3.5,0Z" style="fill:#3647d7"/><polygon points="46.317 92.461 43.038 85.905 46.315 82.428 49.594 85.905 46.317 92.461" style="fill:#fed33c"/><polygon points="51.063 117 41.57 117 46.317 92.461 51.063 117" style="fill:#fed33c"/><path d="M43.832,32.356H48.8A16.786,16.786,0,0,1,65.586,49.142V67.465A14.963,14.963,0,0,1,50.622,82.428H42.01A14.963,14.963,0,0,1,27.047,67.465V49.142A16.786,16.786,0,0,1,43.832,32.356Z" style="fill:#f7ecda"/><path d="M48.8,32.356H46.316V82.428h4.306A14.963,14.963,0,0,0,65.586,67.465V49.142A16.786,16.786,0,0,0,48.8,32.356Z" style="fill:#ecd6b2"/><path d="M46.316,26.118H25.62s-1.613,17.37,13.725,17.37H49.1a18.41,18.41,0,0,1,12.95,5.325l3.533,3.5v-.683C65.586,40.984,61.755,26.118,46.316,26.118Z" style="fill:#9f5f4d"/><path d="M51.062,64.165a1.75,1.75,0,0,0-1.75,1.75,3,3,0,0,1-5.993,0,1.75,1.75,0,0,0-3.5,0,6.5,6.5,0,0,0,12.993,0A1.75,1.75,0,0,0,51.062,64.165Z" style="fill:#9f5f4d"/><circle cx="38.753" cy="55.439" r="2.884" style="fill:#9f5f4d"/><circle cx="53.88" cy="55.439" r="2.884" style="fill:#9f5f4d"/><path d="M46.316,26.118h0v17.37H49.1a18.41,18.41,0,0,1,12.95,5.325l3.533,3.5v-.683C65.586,40.984,61.755,26.118,46.316,26.118Z" style="fill:#714437"/><polygon points="46.316 82.428 49.594 85.905 46.317 92.461 46.316 82.428" style="fill:#fd9e35"/><polygon points="46.31 117 46.317 92.461 51.063 117 46.31 117" style="fill:#fd9e35"/></svg>