<svg id="Layer_1" data-name="Layer 1" xmlns="http://www.w3.org/2000/svg" viewBox="0 0 128 128"><title>PROFESSOR</title><path d="M109.28,99.97V117H18.72V99.97A33.114,33.114,0,0,1,44.71,67.63h.01a32.681,32.681,0,0,1,7.11-.77H76.17a33.676,33.676,0,0,1,6.78.69,33.156,33.156,0,0,1,26.33,32.42Z" style="fill:#1db6bc"/><path d="M89.73,69.76a33.2,33.2,0,0,0-6.78-2.21,33.676,33.676,0,0,0-6.78-.69H64V117H109.28V99.97A33.106,33.106,0,0,0,89.73,69.76Z" style="fill:#17799b"/><path d="M64,74.67l-9,9.54L38.27,69.76a32.859,32.859,0,0,1,6.44-2.13h.01l1.05.04Z" style="fill:#606de0"/><path d="M89.73,69.76,73,84.21l-9-9.54,18.23-7,.72-.12A33.2,33.2,0,0,1,89.73,69.76Z" style="fill:#3647d7"/><path d="M37.62,99.5V117h-3.5V99.5a1.75,1.75,0,0,1,3.5,0Z" style="fill:#17799b"/><path d="M93.88,99.5V117h-3.5V99.5a1.75,1.75,0,0,1,3.5,0Z" style="fill:#1db6bc"/><polygon points="64.001 86.954 59.986 78.926 63.999 74.669 68.014 78.926 64.001 86.954" style="fill:#fed33c"/><polygon points="69.812 117 58.188 117 64.001 86.954 69.812 117" style="fill:#fed33c"/><polygon points="64 117 69.812 117 64.001 86.954 64 86.957 64 117" style="fill:#fd9e35"/><path d="M55,19.978a8.978,8.978,0,1,0-17.585,2.543A7.992,7.992,0,1,0,50.028,28,8.97,8.97,0,0,0,55,19.978Z" style="fill:#9f5f4d"/><path d="M73,19.978a8.978,8.978,0,1,1,17.585,2.543A7.992,7.992,0,1,1,77.972,28,8.97,8.97,0,0,1,73,19.978Z" style="fill:#714437"/><path d="M63.073,13.36h1.855A22.667,22.667,0,0,1,87.594,36.027V54.464A20.206,20.206,0,0,1,67.389,74.669H60.611A20.206,20.206,0,0,1,40.406,54.464V36.027A22.667,22.667,0,0,1,63.073,13.36Z" style="fill:#f7ecda"/><path d="M96.659,45.394a9.065,9.065,0,0,1-9.065,9.065V36.329A9.065,9.065,0,0,1,96.659,45.394Z" style="fill:#ecd6b2"/><path d="M64.927,13.36H64V74.669h3.389A20.206,20.206,0,0,0,87.594,54.464V36.027A22.667,22.667,0,0,0,64.927,13.36Z" style="fill:#ecd6b2"/><path d="M31.341,45.394a9.065,9.065,0,0,0,9.065,9.065V36.329A9.065,9.065,0,0,0,31.341,45.394Z" style="fill:#ecd6b2"/><circle cx="53.949" cy="42.932" r="6.603" style="fill:#fff"/><circle cx="74.051" cy="42.932" r="6.603" style="fill:#fff"/><path d="M74.052,34.579a8.337,8.337,0,0,0-6.688,3.369,8.857,8.857,0,0,0-6.71.024,8.328,8.328,0,1,0,1.453,3.184A5.462,5.462,0,0,1,65.9,41.13a8.351,8.351,0,1,0,8.152-6.551Zm-20.1,13.207A4.853,4.853,0,1,1,58.8,42.932,4.858,4.858,0,0,1,53.948,47.786Zm20.1,0A4.853,4.853,0,1,1,78.9,42.932,4.859,4.859,0,0,1,74.052,47.786Z" style="fill:#9f5f4d"/><path d="M64,65.776a17.889,17.889,0,0,1-8.451-1.845,1.75,1.75,0,0,1,1.723-3.047A14.6,14.6,0,0,0,64,62.276a14.6,14.6,0,0,0,6.729-1.392,1.75,1.75,0,1,1,1.723,3.046A17.872,17.872,0,0,1,64,65.776Z" style="fill:#9f5f4d"/><polygon points="64 74.669 68.014 78.926 64.001 86.954 64 74.669" style="fill:#fd9e35"/></svg>