<svg id="Layer_1" data-name="Layer 1" xmlns="http://www.w3.org/2000/svg" viewBox="0 0 128 128"><title>Q AND A</title><path d="M75.75,37.75h-4a1.75,1.75,0,0,1,0-3.5h4a1.75,1.75,0,0,1,0,3.5Z" style="fill:#fd9e35"/><path d="M87.83,37.75H81.79a1.75,1.75,0,0,1,0-3.5h6.04a1.75,1.75,0,0,1,0,3.5Z" style="fill:#fd9e35"/><path d="M97.871,41.75A1.75,1.75,0,0,1,96.121,40V37.75h-2.25a1.75,1.75,0,1,1,0-3.5h4A1.75,1.75,0,0,1,99.621,36v4A1.75,1.75,0,0,1,97.871,41.75Z" style="fill:#fd9e35"/><path d="M97.87,51.527a1.75,1.75,0,0,1-1.75-1.75V44.889a1.75,1.75,0,0,1,3.5,0v4.889A1.75,1.75,0,0,1,97.87,51.527Z" style="fill:#fd9e35"/><path d="M97.87,60.416a1.75,1.75,0,0,1-1.75-1.75v-4a1.75,1.75,0,0,1,3.5,0v4A1.75,1.75,0,0,1,97.87,60.416Z" style="fill:#fd9e35"/><path d="M56.014,83.081h-4a1.75,1.75,0,1,1,0-3.5h4a1.75,1.75,0,0,1,0,3.5Z" style="fill:#1db6bc"/><path d="M45.974,83.081h-6.04a1.75,1.75,0,0,1,0-3.5h6.04a1.75,1.75,0,0,1,0,3.5Z" style="fill:#1db6bc"/><path d="M33.894,83.081h-4a1.75,1.75,0,0,1-1.75-1.75v-4a1.75,1.75,0,0,1,3.5,0v2.25h2.25a1.75,1.75,0,0,1,0,3.5Z" style="fill:#1db6bc"/><path d="M29.894,74.192a1.75,1.75,0,0,1-1.75-1.75V67.554a1.75,1.75,0,0,1,3.5,0v4.889A1.75,1.75,0,0,1,29.894,74.192Z" style="fill:#1db6bc"/><path d="M29.894,64.416a1.75,1.75,0,0,1-1.75-1.75v-4a1.75,1.75,0,0,1,3.5,0v4A1.75,1.75,0,0,1,29.894,64.416Z" style="fill:#1db6bc"/><polygon points="117 58.666 56.25 58.666 56.25 98.744 66.656 98.744 66.656 109.572 77.484 98.744 117 98.744 117 58.666" style="fill:#1db6bc"/><polygon points="11 18.428 71.75 18.428 71.75 58.506 61.344 58.506 61.344 69.334 50.516 58.506 11 58.506 11 18.428" style="fill:#fed33c"/><polygon points="41.375 58.506 50.516 58.506 61.344 69.334 61.344 58.506 71.75 58.506 71.75 18.428 41.375 18.428 41.375 58.506" style="fill:#fd9e35"/><path d="M48.229,45.472a13.242,13.242,0,0,0,3.245,1.7l-1.492,2.861a9.241,9.241,0,0,1-1.793-.753q-.192-.1-2.7-1.78a10.781,10.781,0,0,1-4.367.862,9.587,9.587,0,0,1-7.249-2.724q-2.622-2.724-2.622-7.653t2.629-7.646a9.436,9.436,0,0,1,7.133-2.731,9.338,9.338,0,0,1,7.078,2.731q2.615,2.731,2.615,7.646a13.208,13.208,0,0,1-.726,4.573A9.51,9.51,0,0,1,48.229,45.472Zm-3.258-2.286a6.061,6.061,0,0,0,1.171-2.218,10.4,10.4,0,0,0,.39-2.985A7.606,7.606,0,0,0,45,32.788a5.542,5.542,0,0,0-8.029.007,7.587,7.587,0,0,0-1.54,5.189,7.763,7.763,0,0,0,1.54,5.264,4.97,4.97,0,0,0,3.895,1.746,4.753,4.753,0,0,0,1.657-.287,11.721,11.721,0,0,0-2.505-1.26l1.136-2.314A13.765,13.765,0,0,1,44.971,43.186Z" style="fill:#714437"/><rect x="87.801" y="58.666" width="29.199" height="40.078" style="fill:#17799b"/><path d="M97.87,89.4H93.462L91.71,84.846H83.687L82.03,89.4h-4.3l7.817-20.07h4.285Zm-7.461-7.94-2.765-7.448-2.711,7.448Z" style="fill:#714437"/></svg>