<svg id="Layer_1" data-name="Layer 1" xmlns="http://www.w3.org/2000/svg" viewBox="0 0 128 128"><title>SCHOOL BUILDING</title><path d="M64,15.086a1.75,1.75,0,0,0-1.75,1.75v24a1.75,1.75,0,0,0,3.5,0v-24A1.75,1.75,0,0,0,64,15.086Z" style="fill:#9f5f4d"/><polygon points="110.347 64.349 17.653 64.349 26.398 38.115 101.602 38.115 110.347 64.349" style="fill:#1db6bc"/><polygon points="85.716 64.349 64 34.18 42.284 64.349 25.523 64.349 25.523 99.327 102.477 99.327 102.477 64.349 85.716 64.349" style="fill:#fed33c"/><polygon points="64 64.349 110.347 64.349 101.602 38.115 64 38.115 64 64.349" style="fill:#17799b"/><polygon points="102.477 99.327 102.477 64.349 85.716 64.349 64 34.18 64 99.327 102.477 99.327" style="fill:#fd9e35"/><path d="M117,97.578H11a1.75,1.75,0,1,0,0,3.5H117a1.75,1.75,0,1,0,0-3.5Z" style="fill:#fd9e35"/><path d="M64,75.935h0a9.073,9.073,0,0,1,9.073,9.073V99.327a0,0,0,0,1,0,0H54.927a0,0,0,0,1,0,0V85.008A9.073,9.073,0,0,1,64,75.935Z" style="fill:#fc445e"/><circle cx="64" cy="58.738" r="5.465" style="fill:#f7ecda"/><path d="M40.289,72.438h0a3.771,3.771,0,0,1,3.771,3.771V79.98a0,0,0,0,1,0,0H36.518a0,0,0,0,1,0,0V76.209A3.771,3.771,0,0,1,40.289,72.438Z" style="fill:#f7ecda"/><path d="M40.289,85.445h0a3.771,3.771,0,0,1,3.771,3.771v3.771a0,0,0,0,1,0,0H36.518a0,0,0,0,1,0,0V89.216A3.771,3.771,0,0,1,40.289,85.445Z" style="fill:#f7ecda"/><path d="M87.711,72.438h0a3.771,3.771,0,0,1,3.771,3.771V79.98a0,0,0,0,1,0,0H83.94a0,0,0,0,1,0,0V76.209a3.771,3.771,0,0,1,3.771-3.771Z" style="fill:#ecd6b2"/><path d="M87.711,85.445h0a3.771,3.771,0,0,1,3.771,3.771v3.771a0,0,0,0,1,0,0H83.94a0,0,0,0,1,0,0V89.216A3.771,3.771,0,0,1,87.711,85.445Z" style="fill:#ecd6b2"/><polygon points="75.441 27.621 64 27.621 64 20.334 75.441 20.334 72.636 23.978 75.441 27.621" style="fill:#b20944"/><rect x="43.653" y="99.327" width="40.693" height="5.918" style="fill:#9f5f4d"/><rect x="38.548" y="105.246" width="50.904" height="5.918" style="fill:#9f5f4d"/><path d="M64,75.935V99.327h9.073V85.008A9.073,9.073,0,0,0,64,75.935Z" style="fill:#b20944"/><rect x="64" y="105.246" width="25.452" height="5.918" style="fill:#714437"/><rect x="64" y="99.327" width="20.347" height="5.918" style="fill:#714437"/><path d="M69.465,58.738A5.465,5.465,0,0,0,64,53.272V64.2A5.465,5.465,0,0,0,69.465,58.738Z" style="fill:#ecd6b2"/></svg>