<svg id="Layer_1" data-name="Layer 1" xmlns="http://www.w3.org/2000/svg" viewBox="0 0 128 128"><title>SEARCH</title><path d="M80.717,82.467a1.743,1.743,0,0,1-1.237-.513l-4.97-4.97a1.75,1.75,0,0,1,2.475-2.475l4.97,4.97a1.75,1.75,0,0,1-1.237,2.987Z" style="fill:#fd9e35"/><path d="M22.644,22.644a37.549,37.549,0,1,0,53.1,0A37.549,37.549,0,0,0,22.644,22.644ZM69.959,69.959a29.364,29.364,0,1,1,0-41.526A29.364,29.364,0,0,1,69.959,69.959Z" style="fill:#3647d7"/><circle cx="49.46" cy="49.46" r="29.627" style="fill:#17799b"/><path d="M28.432,28.432A29.364,29.364,0,0,1,69.959,69.959c-.038.038-.078.073-.117.111l5.774,5.8c.043-.043.088-.082.131-.124a37.549,37.549,0,0,0-53.1-53.1l5.775,5.8Z" style="fill:#606de0"/><path d="M28.5,28.526l41.795,42a29.625,29.625,0,1,0-41.795-42Z" style="fill:#1db6bc"/><path d="M64.779,35.362a1.743,1.743,0,0,1-1.237-.513,20.29,20.29,0,0,0-28.692,0,1.75,1.75,0,0,1-2.475-2.475,23.815,23.815,0,0,1,33.642,0,1.75,1.75,0,0,1-1.237,2.987Z" style="fill:#f7ecda"/><path d="M93.264,73.638h9.082a0,0,0,0,1,0,0v44.106a4.228,4.228,0,0,1-4.228,4.228h-.627a4.228,4.228,0,0,1-4.228-4.228V73.638a0,0,0,0,1,0,0Z" transform="translate(-40.512 97.805) rotate(-45)" style="fill:#714437"/><path d="M115.115,108.693,83.928,77.506l-3.351,3.351,34.095,34.259.443-.443A4.228,4.228,0,0,0,115.115,108.693Z" style="fill:#9f5f4d"/></svg>