<svg id="Layer_1" data-name="Layer 1" xmlns="http://www.w3.org/2000/svg" viewBox="0 0 128 128"><title>SPEECH</title><polygon points="117 58.666 56.25 58.666 56.25 98.744 66.656 98.744 66.656 109.572 77.484 98.744 117 98.744 117 58.666" style="fill:#1db6bc"/><rect x="86.625" y="58.666" width="30.375" height="40.078" style="fill:#17799b"/><polygon points="11 18.428 71.75 18.428 71.75 58.506 61.344 58.506 61.344 69.334 50.516 58.506 11 58.506 11 18.428" style="fill:#fc445e"/><polygon points="50.516 58.506 61.344 69.334 61.344 58.506 71.75 58.506 71.75 18.428 41.375 18.428 41.375 58.506 50.516 58.506" style="fill:#b20944"/><path d="M21.375,31.25H50.25a1.75,1.75,0,0,0,0-3.5H21.375a1.75,1.75,0,0,0,0,3.5Z" style="fill:#f7ecda"/><path d="M61.375,36.5h-40a1.75,1.75,0,0,0,0,3.5h40a1.75,1.75,0,0,0,0-3.5Z" style="fill:#f7ecda"/><path d="M50.25,45.25H21.375a1.75,1.75,0,0,0,0,3.5H50.25a1.75,1.75,0,0,0,0-3.5Z" style="fill:#f7ecda"/><path d="M93.5,89.833H65a1.75,1.75,0,0,0,0,3.5H93.5a1.75,1.75,0,0,0,0-3.5Z" style="fill:#f7ecda"/><path d="M93.5,82.369H65a1.75,1.75,0,0,0,0,3.5H93.5a1.75,1.75,0,0,0,0-3.5Z" style="fill:#f7ecda"/><path d="M100.793,64.167a8.918,8.918,0,0,0-9.043,8.916,1.75,1.75,0,0,0,3.5,0,5.377,5.377,0,0,1,1.613-3.856,5.3,5.3,0,0,1,3.881-1.56A5.522,5.522,0,0,1,106.083,73a5.43,5.43,0,0,1-2.271,4.489,11.61,11.61,0,0,0-4.895,9.4v.187a1.75,1.75,0,0,0,3.5,0V86.9a8.1,8.1,0,0,1,3.43-6.555,8.917,8.917,0,0,0-5.054-16.175Z" style="fill:#f7ecda"/><path d="M102.28,90.91a1.5,1.5,0,0,0-.16-.3,1.83,1.83,0,0,0-.221-.26,1.754,1.754,0,0,0-1.58-.479,1.179,1.179,0,0,0-.319.1,1.3,1.3,0,0,0-.311.16,1.316,1.316,0,0,0-.26.22,1.761,1.761,0,0,0-.22.26,2.141,2.141,0,0,0-.16.3,1.993,1.993,0,0,0-.1.33,1.9,1.9,0,0,0-.03.34A1.745,1.745,0,0,0,100,93.2a1.669,1.669,0,0,0,.67.13,1.732,1.732,0,0,0,1.229-.511,1.7,1.7,0,0,0,.521-1.239,1.3,1.3,0,0,0-.04-.34A1.4,1.4,0,0,0,102.28,90.91Z" style="fill:#f7ecda"/></svg>