<svg id="Layer_1" data-name="Layer 1" xmlns="http://www.w3.org/2000/svg" viewBox="0 0 128 128"><title>SPORT</title><path d="M64,69.858l-8.258-1.184S60.25,73.75,60.25,89.5h7.5c0-15.75,4.508-20.826,4.508-20.826Z" style="fill:#606de0"/><path d="M64.178,89.5H67.75c0-15.75,4.508-20.826,4.508-20.826l-8.08,1.158Z" style="fill:#3647d7"/><rect x="41.5" y="106.178" width="45" height="10.822" style="fill:#606de0"/><rect x="49.533" y="89.5" width="28.933" height="16.678" style="fill:#fed33c"/><path d="M93.309,40.549a29.306,29.306,0,0,1-.493,5.35A29,29,0,0,1,88.3,56.934a29.31,29.31,0,1,1,5.008-16.385Z" style="fill:#9f5f4d"/><path d="M89.259,25.682l-1.375.287-2.4,9.344L72.075,36.719l-6.325-4.6V18.054l8.505-4.187v-.78a29.392,29.392,0,0,0-20.511,0v.78l8.505,4.187V32.123l-6.367,4.626L42.521,35.328l-2.4-9.359-1.375-.287A29.307,29.307,0,0,0,35.184,45.9l.732.151,5.711-7.3,12.78,1.359,2.643,8.134-8.107,10.41L39.7,56.934a29.3,29.3,0,0,0,16.043,11.74l-4.017-7.895,8.2-10.534h8.18l8.168,10.529-4.02,7.9A29.3,29.3,0,0,0,88.3,56.934l-9.237,1.721-8.1-10.443L73.6,40.078,86.364,38.74l5.721,7.309.732-.151a29.307,29.307,0,0,0-3.558-20.217Z" style="fill:#fed33c"/><path d="M74.255,13.087a29.153,29.153,0,0,0-10.078-1.843V69.851A29.31,29.31,0,0,0,74.255,13.087Z" style="fill:#714437"/><path d="M87.884,25.969l-2.4,9.344L72.075,36.719l-6.325-4.6V18.054l8.505-4.187v-.78a29.153,29.153,0,0,0-10.078-1.843v39h3.932l8.168,10.529-4.02,7.9A29.3,29.3,0,0,0,88.3,56.934l-9.237,1.721-8.1-10.443L73.6,40.078,86.364,38.74l5.721,7.309.732-.151a29.307,29.307,0,0,0-3.558-20.217Z" style="fill:#fd9e35"/><rect x="64.178" y="106.178" width="22.322" height="10.822" style="fill:#3647d7"/><rect x="64" y="89.5" width="14.467" height="16.678" style="fill:#fd9e35"/></svg>