<svg id="Layer_1" data-name="Layer 1" xmlns="http://www.w3.org/2000/svg" viewBox="0 0 128 128"><title>STUDYING</title><path d="M98.3,93.15v8.73H29.7V93.15A32.363,32.363,0,0,1,51.69,62.58h.01a32.281,32.281,0,0,1,10.22-1.65h4.16A32.207,32.207,0,0,1,98.3,93.15Z" style="fill:#606de0"/><path d="M82.53,65.44a31.938,31.938,0,0,0-16.45-4.51H64v40.95H98.3V93.15A32.219,32.219,0,0,0,82.53,65.44Z" style="fill:#3647d7"/><path d="M64,67.31,56.65,75.1,45.47,65.45a31.95,31.95,0,0,1,6.22-2.87h.01Z" style="fill:#fc445e"/><path d="M82.53,65.44,71.35,75.1,64,67.31l12.3-4.73A32.6,32.6,0,0,1,82.53,65.44Z" style="fill:#b20944"/><polygon points="64 77.343 60.722 70.787 63.999 67.31 67.278 70.787 64 77.343" style="fill:#fed33c"/><path d="M61.516,17.238h4.968A16.786,16.786,0,0,1,83.27,34.024V52.347A14.963,14.963,0,0,1,68.306,67.31H59.694A14.963,14.963,0,0,1,44.73,52.347V34.024A16.786,16.786,0,0,1,61.516,17.238Z" style="fill:#f7ecda"/><path d="M66.484,17.238H64V67.31h4.308A14.963,14.963,0,0,0,83.27,52.347V34.024A16.786,16.786,0,0,0,66.484,17.238Z" style="fill:#ecd6b2"/><polygon points="28.674 117 21.546 110.044 63.999 110.044 64 117 28.674 117" style="fill:#3647d7"/><polygon points="99.326 117 106.454 110.044 64.001 110.044 64 117 99.326 117" style="fill:#3647d7"/><path d="M38.651,43.27a6.079,6.079,0,0,0,6.079,6.079V37.191A6.079,6.079,0,0,0,38.651,43.27Z" style="fill:#ecd6b2"/><path d="M89.349,43.27a6.079,6.079,0,0,1-6.079,6.079V37.191A6.079,6.079,0,0,1,89.349,43.27Z" style="fill:#ecd6b2"/><path d="M64,11H43.3S41.691,28.37,57.029,28.37h9.758a18.41,18.41,0,0,1,12.95,5.325l3.533,3.5v-.683C83.27,25.866,79.439,11,64,11Z" style="fill:#9f5f4d"/><path d="M64,57.293a6.5,6.5,0,0,1-6.5-6.5,1.75,1.75,0,0,1,3.5,0A3,3,0,0,0,67,50.8a1.75,1.75,0,0,1,3.5,0A6.5,6.5,0,0,1,64,57.293Z" style="fill:#9f5f4d"/><circle cx="56.437" cy="40.321" r="2.884" style="fill:#9f5f4d"/><circle cx="71.563" cy="40.321" r="2.884" style="fill:#9f5f4d"/><rect x="28.674" y="74.444" width="70.651" height="42.556" style="fill:#1db6bc"/><circle cx="64" cy="95.722" r="2.972" style="fill:#f7ecda"/><polygon points="63.999 67.31 67.278 70.787 64 77.343 63.999 67.31" style="fill:#fd9e35"/><path d="M64,11h0V28.37h2.788a18.41,18.41,0,0,1,12.95,5.325l3.533,3.5v-.683C83.27,25.866,79.439,11,64,11Z" style="fill:#714437"/><rect x="64" y="74.444" width="35.326" height="42.556" style="fill:#17799b"/><path d="M66.972,95.722A2.972,2.972,0,0,0,64,92.75v5.945A2.972,2.972,0,0,0,66.972,95.722Z" style="fill:#ecd6b2"/></svg>