<svg id="Layer_1" data-name="Layer 1" xmlns="http://www.w3.org/2000/svg" viewBox="0 0 128 128"><title>TEACHER</title><rect x="11" y="11" width="106" height="8" style="fill:#9f5f4d"/><rect x="11" y="76.333" width="106" height="8" style="fill:#9f5f4d"/><rect x="17" y="19" width="94" height="57.333" style="fill:#1db6bc"/><rect x="64.932" y="11" width="52.068" height="8" style="fill:#714437"/><rect x="64.932" y="76.333" width="52.068" height="8" style="fill:#714437"/><rect x="64.932" y="19" width="46.068" height="57.333" style="fill:#17799b"/><rect x="84.75" y="70.25" width="26.25" height="6.083" style="fill:#b20944"/><circle cx="104.355" cy="70.98" r="5.73" style="fill:#ecd6b2"/><path d="M107.77,75.99,94.83,98.39a13.327,13.327,0,0,1-18.21,4.88l-4.89-2.64L71.88,117H11.37v-8.73A32.206,32.206,0,0,1,27.13,80.56a31.936,31.936,0,0,1,16.45-4.51h4.17c3.72,0,11.2.9,11.2.9l.37.23,5.07,3.22L82.46,91.85a3.192,3.192,0,0,0,4.47-1.1l11.6-20.09Z" style="fill:#606de0"/><path d="M103.49,64.954,89.208,38.386a1.75,1.75,0,0,0-3.083,1.656L100.407,66.61a1.75,1.75,0,0,0,3.083-1.656Z" style="fill:#fd9e35"/><path d="M86.93,90.75a3.192,3.192,0,0,1-4.47,1.1L64.39,80.4l-5.07-3.22-.37-.23s-7.48-.9-11.2-.9H45.663V117H71.88l-.15-16.37,4.89,2.64a13.327,13.327,0,0,0,18.21-4.88l12.94-22.4-9.24-5.33Z" style="fill:#3647d7"/><path d="M45.66,82.43l-7.35,7.79L27.13,80.56a32.59,32.59,0,0,1,6.23-2.86Z" style="fill:#fc445e"/><polygon points="64.39 80.4 53.01 90.22 45.66 82.43 59.32 77.18 64.39 80.4" style="fill:#b20944"/><path d="M43.179,32.356h4.968A16.786,16.786,0,0,1,64.932,49.142V67.465A14.963,14.963,0,0,1,49.969,82.428H41.356A14.963,14.963,0,0,1,26.393,67.465V49.142A16.786,16.786,0,0,1,43.179,32.356Z" style="fill:#f7ecda"/><path d="M20.314,58.388a6.079,6.079,0,0,0,6.079,6.079V52.309A6.079,6.079,0,0,0,20.314,58.388Z" style="fill:#ecd6b2"/><path d="M71.012,58.388a6.079,6.079,0,0,1-6.079,6.079V52.309A6.079,6.079,0,0,1,71.012,58.388Z" style="fill:#ecd6b2"/><polygon points="45.663 92.461 42.385 85.905 45.662 82.428 48.941 85.905 45.663 92.461" style="fill:#fed33c"/><polygon points="50.409 117 40.916 117 45.663 92.461 50.409 117" style="fill:#fed33c"/><polygon points="45.662 82.428 48.941 85.905 45.663 92.461 45.662 82.428" style="fill:#fd9e35"/><polygon points="45.663 117 50.409 117 45.663 92.461 45.663 117" style="fill:#fd9e35"/><path d="M48.147,32.356H45.663V82.428h4.306A14.963,14.963,0,0,0,64.932,67.465V49.142A16.786,16.786,0,0,0,48.147,32.356Z" style="fill:#ecd6b2"/><path d="M45.663,26.118h-20.7s-1.613,17.37,13.725,17.37H48.45A18.41,18.41,0,0,1,61.4,48.813l3.533,3.5v-.683C64.932,40.984,61.1,26.118,45.663,26.118Z" style="fill:#9f5f4d"/><path d="M24.44,102.71V117h-3.5V102.71a1.75,1.75,0,0,1,3.5,0Z" style="fill:#3647d7"/><path d="M50.408,64.165a1.75,1.75,0,0,0-1.75,1.75,3,3,0,0,1-5.993,0,1.75,1.75,0,0,0-3.5,0,6.5,6.5,0,0,0,12.993,0A1.75,1.75,0,0,0,50.408,64.165Z" style="fill:#9f5f4d"/><circle cx="38.099" cy="55.439" r="2.884" style="fill:#9f5f4d"/><circle cx="53.226" cy="55.439" r="2.884" style="fill:#9f5f4d"/><path d="M48.45,43.488A18.41,18.41,0,0,1,61.4,48.813l3.533,3.5v-.683c0-10.642-3.83-25.508-19.27-25.508v17.37Z" style="fill:#714437"/></svg>