<svg id="Layer_1" data-name="Layer 1" xmlns="http://www.w3.org/2000/svg" viewBox="0 0 128 128"><title>UNIVERSITY BUILDING</title><path d="M64,17.009a1.75,1.75,0,0,0-1.75,1.75V38.592a1.75,1.75,0,1,0,3.5,0V18.759A1.75,1.75,0,0,0,64,17.009Z" style="fill:#9f5f4d"/><rect x="20.576" y="58.898" width="86.849" height="44.425" style="fill:#606de0"/><rect x="64" y="58.898" width="43.424" height="44.425" style="fill:#3647d7"/><polygon points="64 37.64 43.653 54.778 43.653 103.323 64 103.323 84.347 103.323 84.347 54.778 64 37.64" style="fill:#fc445e"/><polygon points="84.347 103.323 84.347 54.778 64 37.64 64 103.323 84.347 103.323" style="fill:#b20944"/><path d="M117,101.573H11a1.75,1.75,0,0,0,0,3.5H117a1.75,1.75,0,0,0,0-3.5Z" style="fill:#3647d7"/><polygon points="77.083 31.092 64 31.092 64 22.759 77.083 22.759 73.875 26.925 77.083 31.092" style="fill:#fd9e35"/><rect x="43.653" y="97.405" width="40.693" height="5.918" style="fill:#9f5f4d"/><rect x="38.548" y="103.323" width="50.904" height="5.918" style="fill:#9f5f4d"/><path d="M31.95,71.483h0a3.533,3.533,0,0,1,3.533,3.533V78.55a0,0,0,0,1,0,0H28.417a0,0,0,0,1,0,0V75.017A3.533,3.533,0,0,1,31.95,71.483Z" style="fill:#f7ecda"/><path d="M31.95,83.671h0A3.533,3.533,0,0,1,35.484,87.2v3.533a0,0,0,0,1,0,0H28.417a0,0,0,0,1,0,0V87.2A3.533,3.533,0,0,1,31.95,83.671Z" style="fill:#f7ecda"/><path d="M96.05,71.483h0a3.533,3.533,0,0,1,3.533,3.533V78.55a0,0,0,0,1,0,0H92.516a0,0,0,0,1,0,0V75.017A3.533,3.533,0,0,1,96.05,71.483Z" style="fill:#ecd6b2"/><path d="M57.455,63.6h0a3.533,3.533,0,0,1,3.533,3.533v3.533a0,0,0,0,1,0,0H53.922a0,0,0,0,1,0,0V67.128A3.533,3.533,0,0,1,57.455,63.6Z" style="fill:#f7ecda"/><path d="M70.545,63.6h0a3.533,3.533,0,0,1,3.533,3.533v3.533a0,0,0,0,1,0,0H67.011a0,0,0,0,1,0,0V67.128A3.533,3.533,0,0,1,70.545,63.6Z" style="fill:#ecd6b2"/><path d="M96.05,83.671h0A3.533,3.533,0,0,1,99.583,87.2v3.533a0,0,0,0,1,0,0H92.516a0,0,0,0,1,0,0V87.2A3.533,3.533,0,0,1,96.05,83.671Z" style="fill:#ecd6b2"/><rect x="49.764" y="76.285" width="28.472" height="21.12" style="fill:#fed33c"/><rect x="64" y="76.285" width="14.236" height="21.12" style="fill:#fd9e35"/><circle cx="64" cy="53.481" r="4.37" style="fill:#f7ecda"/><rect x="64" y="97.405" width="20.347" height="5.918" style="fill:#714437"/><rect x="64" y="103.323" width="25.452" height="5.918" style="fill:#714437"/><path d="M68.37,53.481A4.37,4.37,0,0,0,64,49.111v8.74A4.37,4.37,0,0,0,68.37,53.481Z" style="fill:#ecd6b2"/></svg>