<svg id="Layer_1" data-name="Layer 1" xmlns="http://www.w3.org/2000/svg" viewBox="0 0 128 128"><title>VIDEO TUTORIAL</title><rect x="11" y="36.303" width="98.844" height="65.801" style="fill:#fc445e"/><rect x="60.422" y="36.303" width="49.422" height="65.801" style="fill:#b20944"/><path d="M117,39.7V34.256h-6.494a17.966,17.966,0,0,0-3.308-7.977l4.594-4.594-3.851-3.85-4.594,4.594A17.966,17.966,0,0,0,95.37,19.12V12.626H89.925V19.12a17.966,17.966,0,0,0-7.977,3.308l-4.594-4.594L73.5,21.684,78.1,26.278a17.966,17.966,0,0,0-3.308,7.977H68.295V39.7h6.494A17.966,17.966,0,0,0,78.1,47.679L73.5,52.273l3.851,3.851,4.594-4.594a17.966,17.966,0,0,0,7.977,3.308v6.494H95.37V54.837a17.965,17.965,0,0,0,7.977-3.308l4.594,4.594,3.851-3.851L107.2,47.679a17.966,17.966,0,0,0,3.308-7.978ZM92.647,45.791a8.812,8.812,0,1,1,8.812-8.812A8.812,8.812,0,0,1,92.647,45.791Z" style="fill:#fed33c"/><polygon points="48.389 84.314 48.389 54.094 72.454 69.204 48.389 84.314" style="fill:#f7ecda"/><path d="M109.844,109.8H11a1.75,1.75,0,0,0,0,3.5h98.844a1.75,1.75,0,0,0,0-3.5Z" style="fill:#9f5f4d"/><rect x="18.255" y="107.723" width="17.231" height="7.65" rx="3.583" ry="3.583" style="fill:#606de0"/><polygon points="60.422 76.759 72.454 69.204 60.422 61.649 60.422 76.759" style="fill:#ecd6b2"/><path d="M107.2,26.278l4.594-4.594-3.851-3.85-4.594,4.594A17.966,17.966,0,0,0,95.37,19.12V12.626H92.647V28.167a8.812,8.812,0,0,1,0,17.624V61.331H95.37V54.837a17.965,17.965,0,0,0,7.977-3.308l4.594,4.594,3.851-3.851L107.2,47.679a17.966,17.966,0,0,0,3.308-7.978H117V34.256h-6.494A17.966,17.966,0,0,0,107.2,26.278Z" style="fill:#fd9e35"/><path d="M31.9,107.723H26.871v7.651H31.9a3.583,3.583,0,0,0,3.583-3.583v-.484A3.583,3.583,0,0,0,31.9,107.723Z" style="fill:#3647d7"/><path d="M109.844,109.8H60.422v3.5h49.422a1.75,1.75,0,0,0,0-3.5Z" style="fill:#714437"/></svg>